<svg width="14" height="14" viewBox="0 0 14 14" fill="none" xmlns="http://www.w3.org/2000/svg">
<mask id="path-1-inside-1_10_594" fill="white">
<path d="M12.1567 2.68926C11.8588 2.39117 11.505 2.15472 11.1157 1.99339C10.7263 1.83206 10.309 1.74902 9.88753 1.74902C9.46608 1.74902 9.04876 1.83206 8.6594 1.99339C8.27005 2.15472 7.9163 2.39117 7.61836 2.68926L7.00003 3.30759L6.3817 2.68926C5.77987 2.08743 4.96363 1.74934 4.11253 1.74934C3.26143 1.74934 2.44518 2.08743 1.84336 2.68926C1.24154 3.29108 0.903442 4.10732 0.903442 4.95842C0.903442 5.80952 1.24154 6.62577 1.84336 7.22759L7.00003 12.3843L12.1567 7.22759C12.4548 6.92965 12.6912 6.5759 12.8526 6.18655C13.0139 5.79719 13.0969 5.37987 13.0969 4.95842C13.0969 4.53697 13.0139 4.11965 12.8526 3.7303C12.6912 3.34095 12.4548 2.9872 12.1567 2.68926Z"/>
</mask>
<path d="M12.1567 2.68926L-11.8906 26.7252C-11.8868 26.729 -11.8831 26.7328 -11.8793 26.7365L12.1567 2.68926ZM9.88753 1.74902V35.749V1.74902ZM7.61836 2.68926L31.66 26.7309L31.6656 26.7252L7.61836 2.68926ZM7.00003 3.30759L-17.0416 27.3492C-3.76377 40.627 17.7638 40.627 31.0417 27.3492L7.00003 3.30759ZM6.3817 2.68926L-17.6599 26.7309L-17.6599 26.7309L6.3817 2.68926ZM1.84336 7.22759L-22.1983 31.2692V31.2692L1.84336 7.22759ZM7.00003 12.3843L-17.0416 36.4259C-10.6654 42.8021 -2.01733 46.3843 7.00003 46.3843C16.0174 46.3843 24.6654 42.8021 31.0417 36.4259L7.00003 12.3843ZM12.1567 7.22759L-11.8793 -16.8197L-11.8849 -16.814L12.1567 7.22759ZM36.204 -21.3467C32.7486 -24.8037 28.646 -27.546 24.1306 -29.417L-1.89927 33.4038C-5.63603 31.8554 -9.03112 29.586 -11.8906 26.7252L36.204 -21.3467ZM24.1306 -29.417C19.6151 -31.288 14.7753 -32.251 9.88753 -32.251V35.749C5.84268 35.749 1.83748 34.9521 -1.89927 33.4038L24.1306 -29.417ZM9.88753 -32.251C4.9998 -32.251 0.15995 -31.288 -4.35552 -29.417L21.6743 33.4038C17.9376 34.9521 13.9324 35.749 9.88753 35.749V-32.251ZM-4.35552 -29.417C-8.871 -27.546 -12.9736 -24.8037 -16.4289 -21.3467L31.6656 26.7252C28.8062 29.586 25.4111 31.8554 21.6743 33.4038L-4.35552 -29.417ZM-16.4233 -21.3524L-17.0416 -20.734L31.0417 27.3492L31.66 26.7309L-16.4233 -21.3524ZM31.0417 -20.734L30.4233 -21.3524L-17.6599 26.7309L-17.0416 27.3492L31.0417 -20.734ZM30.4233 -21.3524C23.4453 -28.3304 13.981 -32.2507 4.11253 -32.2507L4.11253 35.7493C-4.05373 35.7493 -11.8855 32.5053 -17.6599 26.7309L30.4233 -21.3524ZM4.11253 -32.2507C-5.75594 -32.2507 -15.2202 -28.3304 -22.1983 -21.3524L25.885 26.7309C20.1106 32.5053 12.2788 35.7493 4.11253 35.7493L4.11253 -32.2507ZM-22.1983 -21.3524C-29.1763 -14.3743 -33.0966 -4.91004 -33.0966 4.95842L34.9034 4.95842C34.9034 13.1247 31.6594 20.9565 25.885 26.7309L-22.1983 -21.3524ZM-33.0966 4.95842C-33.0966 14.8269 -29.1763 24.2912 -22.1983 31.2692L25.885 -16.814C31.6594 -11.0396 34.9034 -3.20783 34.9034 4.95842L-33.0966 4.95842ZM36.1927 31.2749C39.6497 27.8195 42.392 23.7169 44.2629 19.2015L-18.5578 -6.82838C-17.0095 -10.5651 -14.7401 -13.9602 -11.8793 -16.8197L36.1927 31.2749ZM44.2629 19.2015C46.1339 14.686 47.0969 9.8462 47.0969 4.95842H-20.9031C-20.9031 0.913544 -20.1061 -3.09166 -18.5578 -6.82838L44.2629 19.2015ZM47.0969 4.95842C47.0969 0.0706401 46.1339 -4.7692 44.2629 -9.28462L-18.5578 16.7452C-20.1061 13.0085 -20.9031 9.0033 -20.9031 4.95842H47.0969ZM44.2629 -9.28462C42.392 -13.8001 39.6497 -17.9027 36.1927 -21.358L-11.8793 26.7365C-14.7401 23.8771 -17.0095 20.482 -18.5578 16.7452L44.2629 -9.28462ZM-22.1983 31.2692L-17.0416 36.4259L31.0417 -11.6574L25.885 -16.814L-22.1983 31.2692ZM31.0417 36.4259L36.1983 31.2692L-11.8849 -16.814L-17.0416 -11.6574L31.0417 36.4259Z" fill="#D9E9CE" mask="url(#path-1-inside-1_10_594)"/>
</svg>
