<svg width="204" height="185" viewBox="0 0 204 185" fill="none" xmlns="http://www.w3.org/2000/svg">
<path d="M49.2249 184.993C36.6971 184.993 25.4742 180.439 15.5563 171.332C5.63839 162.225 0.679443 147.654 0.679443 127.619C0.679443 109.405 3.68091 92.1024 9.68385 75.71C15.6868 59.3176 23.6472 44.6164 33.5651 31.6066C43.744 18.5968 54.8364 8.05878 66.8422 -0.00732422L84.4596 8.57916C78.9786 14.8239 73.3672 22.4997 67.6252 31.6066C62.1443 40.7135 57.4463 50.9912 53.5314 62.4399C49.6164 73.6284 47.3979 85.4673 46.876 97.9568C59.4038 98.4772 69.9742 102.64 78.5871 110.446C87.2 117.992 91.5065 127.879 91.5065 140.109C91.5065 153.899 87.3305 164.827 78.9786 172.894C70.6267 180.96 60.7088 184.993 49.2249 184.993ZM160.615 184.993C148.348 184.993 137.256 180.439 127.338 171.332C117.681 162.225 112.852 147.654 112.852 127.619C112.852 109.405 115.854 92.1024 121.857 75.71C127.86 59.3176 135.82 44.6164 145.738 31.6066C155.656 18.5968 166.487 8.05878 178.232 -0.00732422L195.85 8.57916C190.369 14.8239 184.757 22.4997 179.015 31.6066C173.534 40.7135 168.836 50.9912 164.921 62.4399C161.267 73.6284 159.179 85.4673 158.657 97.9568C170.924 98.4772 181.495 102.64 190.369 110.446C199.242 117.992 203.679 127.879 203.679 140.109C203.679 153.899 199.373 164.827 190.76 172.894C182.147 180.96 172.099 184.993 160.615 184.993Z" fill="white"/>
</svg>
