<svg width="646" height="644" viewBox="0 0 646 644" fill="none" xmlns="http://www.w3.org/2000/svg">
<mask id="mask0_5_119" style="mask-type:luminance" maskUnits="userSpaceOnUse" x="0" y="0" width="646" height="644">
<path d="M0 0L645.656 0V643.487H0L0 0Z" fill="white"/>
</mask>
<g mask="url(#mask0_5_119)">
<path d="M267.845 0.700423C268.5 0.530965 269.155 0.530965 269.822 0.372803C287.615 19.8152 307.396 30.6944 328.827 32.6714C352.72 34.9874 379.427 26.4128 408.438 7.29797C409.093 7.45613 409.918 7.62559 410.573 7.78375C380.749 27.7346 353.387 36.7949 328.657 34.3208C306.413 32.1857 285.977 20.8094 267.845 0.700423ZM328.499 49.9787C351.738 51.6281 386.68 46.0247 429.372 13.8842C428.705 13.7261 428.05 13.3872 427.553 13.229C385.686 44.5448 351.41 49.9787 328.657 48.3293C299.161 46.1941 272.951 31.361 250.368 4.15736C249.713 4.32682 249.216 4.48498 248.56 4.65443C271.471 32.5133 298.336 47.8435 328.499 49.9787ZM127.082 62.1797C125.76 63.1625 124.28 64.3261 122.958 65.309C117.683 72.3923 111.096 78.1652 103.019 82.2886C101.697 83.4409 100.387 84.7627 99.2231 85.915C100.545 85.418 102.025 84.7627 103.347 84.0962C113.243 78.9899 121.309 71.4095 127.082 62.1797ZM211.969 18.0077C217.9 17.5106 223.503 18.0077 229.604 19.16C236.19 20.4818 242.957 22.7864 250.21 26.2433C253.994 28.5593 257.79 30.8639 261.744 33.338C287.615 49.3235 315.971 66.7889 345.637 66.7889C355.364 66.7889 365.249 64.8119 375.304 60.5303C387.663 54.5993 400.191 47.0188 412.223 39.4271C423.102 32.6714 434.151 25.7576 445.515 19.9847C444.86 19.6571 444.205 19.4876 443.538 19.16C432.501 24.7634 421.95 31.361 411.398 37.9472C399.367 45.3695 387.007 53.108 374.806 58.8809C335.255 76.5158 296.686 52.7804 262.727 31.8467C258.773 29.384 254.989 27.068 251.193 24.7634C243.782 21.3065 236.857 18.8324 230.259 17.5106C224.159 16.3583 218.397 15.8612 212.466 16.3583C212.127 16.1889 211.799 16.1889 211.472 16.0307C210.647 16.3583 209.653 16.6859 208.84 17.0135C209.992 17.3412 210.975 17.6801 211.969 18.0077C211.799 18.0077 211.641 17.8382 211.969 18.0077ZM108.453 120.033C133.182 110.961 152.297 85.0903 156.748 53.9327C160.047 47.0188 163.018 41.246 165.978 36.4673C164.995 36.9644 164.001 37.6196 163.018 38.1167C160.375 42.3983 157.901 47.3465 155.099 53.2775V53.4469C150.648 84.0962 132.03 109.481 107.798 118.383C95.2691 123.162 82.2547 122.834 70.2233 117.886C69.8843 118.383 69.5567 118.88 69.0596 119.208C75.8267 122.01 82.7405 123.489 89.8352 123.489C95.9356 123.489 102.194 122.337 108.453 120.033ZM102.364 141.124C140.266 134.21 179.659 96.1277 197.791 48.4988C200.92 42.0707 206.038 39.269 213.279 39.7661C219.877 40.2518 227.627 43.3925 234.88 46.8494C236.36 47.5046 238.009 48.3293 239.489 48.9959C242.957 50.6452 246.086 52.1252 249.216 53.4469C285.977 73.7141 324.376 79.1593 366.898 69.9295C396.734 63.5014 428.378 49.4816 463.489 27.5651C462.823 27.2375 462.326 27.068 461.67 26.7404C405.467 61.852 328.002 95.1448 249.871 51.7976C246.742 50.4758 243.612 48.9959 240.155 47.3465C238.664 46.5218 237.015 45.8552 235.535 45.0418C228.124 41.5736 220.374 38.2748 213.449 37.7891C205.541 37.292 199.937 40.4213 196.469 47.5046C178.507 94.6477 139.611 132.222 102.194 139.147C87.0335 141.949 72.3584 139.644 58.847 132.719C58.5194 133.216 58.1918 133.713 57.8528 134.041C67.9073 139.317 78.4589 141.949 89.5075 141.949C93.6197 142.277 97.9126 141.949 102.364 141.124ZM111.752 161.075C153.291 156.455 197.622 121.512 222.509 74.2112C227.457 68.6077 237.184 66.3031 244.606 69.1048C318.931 101.573 392.441 92.5013 456.892 43.223C462.326 38.6137 468.923 35.812 475.679 34.1627C475.024 33.8237 474.199 33.338 473.544 32.9991C467.116 34.8179 461.015 37.6196 455.909 41.9012C391.956 90.8519 319.1 99.7541 245.262 67.6136C237.184 64.4843 226.802 66.9584 221.357 73.217L221.199 73.3865C196.639 120.191 152.625 154.805 111.752 159.584C90.1628 162.058 70.0538 156.127 52.4189 142.774C52.0913 143.271 51.7637 143.768 51.5942 144.095C66.755 155.799 83.9041 161.73 102.194 161.73C105.165 161.561 108.453 161.403 111.752 161.075ZM132.188 183.986C169.446 181.184 203.722 159.426 225.977 124.314C229.762 119.705 234.055 114.757 238.178 110.475C242.957 105.855 247.239 102.398 251.52 99.9235C256.638 97.9465 262.072 96.9524 268.669 96.7942C332.781 115.412 391.458 88.5473 448.159 62.6767C461.343 56.5763 474.854 50.4758 488.377 44.8724C490.185 44.7029 492.003 44.5448 493.811 44.5448C492.986 44.0477 492.161 43.5506 491.337 42.8954C490.354 42.8954 489.202 43.0535 488.208 43.223H488.038C474.527 48.8264 460.846 55.0963 447.662 61.0273C391.131 86.8979 332.781 113.604 269.155 94.9754C268.997 94.9754 268.997 94.9754 268.997 94.9754C262.241 95.1448 256.469 96.1277 251.035 98.2741C246.414 100.906 242.132 104.375 237.184 109.153C232.903 113.604 228.61 118.553 224.656 123.331C202.57 157.935 168.78 179.535 132.03 182.336C101.2 184.641 70.709 173.434 46.8155 151.021C46.4879 151.506 46.1603 152.004 45.9908 152.501C68.0768 172.937 95.7662 184.313 124.111 184.313C126.754 184.313 129.556 184.144 132.188 183.986ZM247.566 157.607C254.989 153.653 261.575 149.868 267.845 146.4C272.951 143.44 278.057 140.3 283.83 136.843C288.778 135.521 293.557 134.041 298.494 132.719C352.89 117.231 404.315 102.725 454.259 68.9354C466.449 62.0102 480.299 62.6767 492.489 63.5014C494.963 63.6596 497.437 63.829 499.584 63.829C505.345 64.8119 510.949 66.6307 516.394 68.7659C521.997 71.0818 527.601 74.2112 532.877 77.8375C541.112 83.4409 549.19 90.8519 556.94 99.9235L557.109 100.093C558.917 101.245 560.735 103.222 562.712 105.03C565.175 107.673 567.819 110.306 570.451 111.3C569.14 109.65 567.819 108.159 566.339 106.51C565.514 105.696 564.689 104.872 563.865 103.878C562.046 101.901 560.069 99.9235 558.092 98.6018C550.342 89.5414 542.106 82.1192 533.859 76.3576C528.425 72.5618 522.822 69.5906 517.049 67.1278C511.615 64.8119 505.684 63.1625 499.742 62.0102C497.437 62.0102 494.963 61.852 492.489 61.6826C479.972 61.0273 465.952 60.2027 453.265 67.4554C403.659 101.076 352.393 115.581 298.008 130.912C293.06 132.222 288.112 133.713 283.175 135.193C283.175 135.193 283.006 135.193 283.006 135.363C277.233 138.989 271.957 142.118 267.02 144.92C260.75 148.547 254.164 152.173 246.742 156.296C166.645 218.928 88.3439 203.756 42.0368 159.426C41.7092 159.923 41.3703 160.409 41.2121 160.906C69.3986 188.267 102.194 199.644 135.159 199.644C175.05 199.644 215.268 182.992 247.566 157.607ZM225.153 203.428C232.564 200.796 239.986 197.825 247.239 194.526C254.492 192.549 261.744 190.075 268.828 187.443C275.753 184.811 282.836 181.67 289.603 178.382C296.359 175.084 303.115 171.288 309.87 167.176C313.994 164.204 317.948 161.233 322.071 158.273C375.801 119.366 436.625 75.194 500.736 82.7857C507.989 84.9209 515.072 88.0502 521.828 92.1737C528.923 96.4666 535.678 102.07 542.106 108.656C548.862 115.581 555.46 123.987 561.718 133.713C561.888 133.872 562.046 134.041 562.215 134.041C575.569 138.164 587.758 144.265 599.79 151.676C599.135 150.693 598.479 149.699 597.982 148.705C586.934 142.118 575.399 136.515 563.198 132.719C556.77 122.834 550.184 114.429 543.428 107.334C536.831 100.579 529.905 94.9754 522.822 90.5243C516.066 86.4121 508.814 83.1133 501.233 80.9669C436.286 73.3865 375.145 117.728 321.247 156.782C317.123 159.753 313 162.725 309.046 165.526C302.448 169.48 295.692 173.265 288.937 176.733C282.181 180.032 275.098 183.161 268.172 185.793C261.247 188.437 253.994 190.742 246.742 192.877C239.489 196.175 232.078 199.147 224.656 201.779C150.32 227.988 82.5824 215.957 36.9192 168.814C36.5916 169.311 36.4334 169.808 36.1058 170.305C66.2579 201.124 105.651 217.109 150.32 217.109C173.897 217.109 199.113 212.5 225.153 203.428ZM171.909 229.31C179.828 229.31 187.736 228.982 195.814 228.158L203.394 227.005C241.635 221.063 281.029 214.974 317.123 197.497C322.229 194.865 327.178 192.063 331.787 188.923C339.209 184.144 346.292 178.71 352.89 172.61C392.441 121.512 434.309 93.4954 477.328 89.372C485.903 90.0385 494.466 92.6707 502.713 96.9524C513.592 103.222 521.67 115.751 530.233 129.262C533.035 133.713 536.006 138.323 539.135 142.774C543.756 149.371 547.879 154.15 552.161 158.104L552.319 158.273C561.549 163.052 570.451 167.006 577.873 170.135C592.051 174.587 605.89 181.839 619.571 189.589C619.243 188.765 618.916 187.94 618.419 187.115C605.393 179.693 592.051 172.937 578.37 168.656C570.948 165.526 562.215 161.73 552.986 156.952C548.862 153.156 544.908 148.377 540.287 141.949C537.328 137.667 534.356 133.047 531.397 128.607C522.822 115.084 514.575 102.228 503.368 95.8001C494.963 91.349 486.061 88.7167 477.17 88.0502C433.484 92.1737 391.289 120.53 351.568 171.785C345.14 177.716 338.057 182.992 330.804 187.77C326.183 190.742 321.247 193.543 316.298 196.175C280.531 213.483 241.138 219.583 203.067 225.514L195.486 226.667C186.754 227.491 178.01 227.988 169.605 227.83C117.355 227.333 70.2233 208.874 33.6317 174.914C33.3041 175.411 33.1346 175.908 32.807 176.405C69.5567 210.353 117.027 228.982 169.605 229.31C170.429 229.31 171.254 229.31 171.909 229.31ZM45.1661 207.552C75.002 230.632 112.249 241.5 161.369 241.5C166.148 241.5 170.926 241.342 175.874 241.172C183.782 240.845 192.357 240.347 202.739 239.523C214.274 238.043 226.305 237.218 237.839 236.393C277.56 233.592 318.772 230.632 354.042 202.773C360.47 197.825 366.729 192.063 372.344 185.635L372.502 185.466C414.2 110.803 452.768 101.731 477.656 107.176C483.598 108.329 489.529 110.633 495.46 113.932C507.661 119.863 513.592 135.521 519.365 150.851C525.127 166.012 531.058 181.839 543.259 188.765C548.534 191.724 554.465 193.046 561.549 192.549C568.971 193.701 576.879 195.52 585.623 198.322C599.134 201.293 613.471 206.399 628.473 212.161C628.304 211.506 627.976 210.851 627.818 210.184C613.312 204.75 599.462 199.644 586.109 196.842C577.218 194.04 569.299 192.221 561.718 191.069H561.549C554.793 191.566 549.19 190.414 544.083 187.443C532.379 180.687 526.607 165.357 521.003 150.354C515.072 134.866 508.972 118.711 496.285 112.61C490.354 109.153 484.254 106.849 478.153 105.696C452.61 100.093 413.375 109.323 371.349 184.811C365.746 191.069 359.646 196.673 353.387 201.621C318.445 229.141 277.56 231.942 238.178 234.913C226.633 235.738 214.601 236.563 203.067 238.043C192.685 238.868 184.28 239.365 176.36 239.692C120.157 241.997 78.956 231.445 46.646 206.399C40.2179 201.451 34.1175 195.848 28.5141 189.917C28.1865 189.42 27.8588 188.923 27.5312 188.595C27.2036 189.262 27.0341 189.747 26.7065 190.414C26.876 190.572 27.0341 190.742 27.2036 191.069C32.6375 197 38.738 202.604 45.1661 207.552ZM28.1865 226.667C33.9593 231.445 40.3874 235.738 46.9737 239.365C82.0853 258.479 124.28 258.479 157.076 256.502C166.645 255.847 176.36 255.022 183.782 254.356C202.897 251.227 223.673 251.396 243.612 251.554C287.129 251.893 332.126 252.221 366.898 219.753C372.999 214.635 378.433 208.874 383.381 202.604C388.487 195.848 393.266 188.267 397.389 180.032V179.862C405.139 145.575 439.257 120.033 470.245 124.981C475.351 126.133 480.627 128.11 485.733 131.239C496.454 137.34 503.707 152.501 511.288 168.328C517.377 181.184 523.805 194.696 532.707 204.422C538.152 210.523 543.914 214.477 550.342 216.782H550.511C558.419 217.437 566.994 218.589 576.551 220.736C595.678 222.713 615.945 228.316 635.557 233.919C635.398 233.264 635.229 232.609 635.06 232.112C615.617 226.667 595.678 221.063 576.879 219.086C567.322 216.951 558.917 215.629 550.839 215.132C544.739 212.986 539.135 209.032 534.029 203.27C525.454 193.701 519.026 180.359 512.937 167.503C505.187 151.348 497.934 136.018 486.728 129.59C481.452 126.461 476.176 124.314 470.742 123.162C438.929 118.055 404.145 144.265 396.068 179.365C392.114 187.443 387.504 194.865 382.398 201.451C377.608 207.721 372.005 213.483 366.074 218.431C331.787 250.402 287.129 250.074 243.782 249.916C223.673 249.747 202.897 249.577 183.782 252.718C176.53 253.373 166.803 254.198 157.245 254.853C124.608 256.999 82.91 256.83 48.1373 237.873C41.5397 234.416 35.4392 230.135 29.6777 225.514C26.5371 219.583 23.0801 213.98 19.4537 208.704C19.2843 209.359 18.9567 210.026 18.7985 210.681C22.086 215.787 25.3848 220.905 28.1865 226.667C28.0283 226.508 28.0283 226.508 28.1865 226.667ZM51.2666 289.795C56.87 290.462 62.3039 290.789 67.9073 290.789C92.3092 290.789 116.7 284.361 140.435 278.091L147.021 276.442C154.116 274.634 162.521 272.488 170.926 270.68C189.216 269.031 208.84 269.686 227.785 270.353C283.333 272.33 340.689 274.307 383.381 221.73C389.979 215.629 396.237 209.032 401.841 201.948C407.772 194.696 413.375 186.618 418.651 178.044C421.452 174.417 423.429 170.135 425.576 165.684C428.05 160.578 430.524 155.133 434.478 150.693C436.783 149.044 438.929 147.225 441.064 145.575C450.633 137.837 459.693 130.584 475.182 139.317C477.825 143.768 480.627 148.874 483.756 154.647C486.4 159.753 489.032 165.029 491.506 170.135C502.216 191.566 513.265 213.81 529.081 227.661C535.351 233.095 541.779 236.891 549.031 239.523C555.618 240.517 562.712 241.669 570.79 243.149C589.408 244.968 608.692 248.594 627.479 252.051C631.603 252.876 635.726 253.543 639.85 254.356C639.68 253.701 639.68 253.204 639.511 252.548C635.557 251.893 631.772 251.068 627.818 250.402C609.189 246.945 589.735 243.319 571.117 241.5C563.04 240.02 555.787 238.868 549.517 237.873C542.603 235.411 536.333 231.615 530.233 226.339C514.745 212.658 504.193 191.566 493.156 169.311C490.682 164.204 488.038 158.929 485.236 153.822C482.107 147.722 479.305 142.616 476.504 138.164C476.504 137.995 476.345 137.995 476.176 137.837C459.693 128.268 449.639 136.346 439.912 144.095C437.777 145.903 435.461 147.552 433.326 149.202L433.156 149.371C429.033 153.981 426.57 159.584 424.096 164.86C421.95 169.311 419.973 173.434 417.34 177.061C412.223 185.635 406.461 193.543 400.688 200.796C394.915 207.879 388.815 214.477 382.229 220.577C339.864 272.488 283.006 270.511 227.785 268.703C208.84 268.037 189.058 267.382 170.599 269.031C162.024 270.839 153.619 272.985 146.536 274.804L139.938 276.442C111.096 284.034 81.1024 291.942 51.4248 287.988C43.8443 286.496 36.2639 276.284 29.6777 266.399C24.4019 255.181 17.9738 244.471 10.721 234.586C10.5516 235.241 10.3934 235.896 10.2239 236.563C17.1491 246.12 23.2496 256.344 28.3559 267.054C35.1116 277.606 43.0196 288.146 51.2666 289.795ZM37.9133 316.005C45.3356 321.111 52.7465 324.907 60.824 327.381C65.2751 328.036 70.3814 329.686 75.4877 331.335C82.0853 333.481 88.841 335.617 94.6139 335.617C99.7202 335.617 103.844 333.967 106.476 329.03C116.372 311.723 128.901 299.522 145.214 291.614C152.297 288.146 159.878 285.672 168.283 284.034C189.216 281.718 211.641 282.384 233.23 283.039C290.755 284.858 350.088 286.666 394.43 234.258C400.361 228.644 405.964 222.554 411.24 215.957C416.516 209.201 421.622 201.621 426.073 193.701C431.01 184.811 435.63 175.084 439.754 164.702C445.515 161.403 451.944 159.256 457.061 158.601C463.817 157.776 468.426 159.753 470.403 164.532C488.705 202.276 505.842 231.118 530.075 249.091C536.661 253.87 543.586 257.824 551.009 260.784H551.167C562.543 262.603 574.247 264.41 585.454 266.387C604.738 269.528 624.192 272.816 643.804 275.29C643.804 274.804 643.634 274.137 643.634 273.64C624.192 271.177 604.907 268.037 585.781 264.749C574.574 262.93 563.04 260.953 551.664 259.146C544.58 256.344 537.655 252.548 531.227 247.77C507.322 230.135 490.185 201.451 472.053 163.877C469.748 158.601 464.472 156.127 457.061 156.952C451.616 157.607 444.86 159.923 438.929 163.38C438.76 163.549 438.602 163.707 438.602 163.707C434.636 174.089 430.027 183.816 424.921 192.719C420.47 200.627 415.521 208.049 410.246 214.805C405.139 221.233 399.536 227.333 393.605 232.936C349.761 284.858 290.586 283.039 233.558 281.232C211.799 280.565 189.386 279.91 168.283 282.215C159.55 284.034 151.811 286.496 144.717 289.965C128.234 297.873 115.378 310.401 105.324 328.036C100.387 337.435 88.1858 333.481 76.3124 329.516C71.2061 327.867 65.9303 326.229 61.4792 325.562C53.5712 323.088 46.1603 319.462 38.9075 314.197C38.738 314.028 38.5686 314.028 38.5686 314.028C30.0053 313.372 22.9107 302.324 22.9107 297.048C22.9107 296.89 22.9107 296.89 22.9107 296.89C18.4596 282.057 12.8562 268.703 6.10048 256.502C5.94231 257.327 5.77286 258.152 5.6034 258.977C11.8733 270.511 17.1491 283.209 21.2613 297.217C21.1031 303.318 28.3559 315.01 37.9133 316.005ZM31.1576 342.372L32.6375 342.869C38.5686 346.338 44.5109 348.642 50.7695 350.292C58.1918 353.093 65.4445 355.228 72.5279 356.72C79.9388 358.2 87.0334 359.024 93.9586 359.024C96.9185 359.024 99.7202 358.855 102.691 358.527C112.904 357.544 122.8 354.573 131.861 349.794C137.961 347.648 143.565 344.191 149.168 339.243C154.274 334.792 158.725 329.358 163.018 324.24C171.751 310.729 180.981 298.37 189.883 298.37C205.044 298.37 221.199 299.692 236.687 301.002C295.862 305.781 357.013 310.729 398.542 251.068C404.484 244.968 410.246 238.37 415.521 231.287C426.231 216.951 435.461 200.299 443.053 181.839C447.662 180.687 452.441 181.839 457.716 185.138C469.748 192.877 479.305 210.353 482.932 217.606C486.886 223.21 490.851 228.316 494.466 233.095C507.661 249.577 520.179 262.106 532.877 271.505C538.649 275.629 544.411 279.244 550.342 282.215C581.5 293.591 613.798 297.873 646.108 299.025C646.108 298.528 646.108 297.873 645.939 297.376C613.798 296.223 581.827 291.942 550.839 280.735C545.078 277.933 539.305 274.307 533.701 270.183C521.003 260.953 508.644 248.594 495.63 232.112C491.834 227.333 488.038 222.385 484.084 216.951C480.458 209.698 470.742 192.063 458.372 183.986C452.61 180.359 447.165 179.207 442.059 180.518C441.889 180.518 441.561 180.845 441.561 181.015C434.151 199.474 424.921 216.126 414.2 230.462C409.093 237.388 403.321 243.974 397.389 250.074C356.189 309.079 295.534 304.143 236.857 299.353C221.199 298.042 205.213 296.72 189.883 296.72C179.659 296.72 169.932 310.571 161.696 323.427C157.573 328.533 153.122 333.809 148.185 338.26C142.74 343.039 137.306 346.326 131.364 348.473C122.473 353.251 112.746 356.053 102.691 357.047C93.2921 358.03 83.7347 357.375 73.1831 355.228C66.0998 353.748 58.847 351.602 51.5942 348.8C45.3356 347.32 39.5627 344.846 33.6317 341.548L32.1405 341.062C26.0513 338.915 17.8043 335.944 15.6579 328.533C11.7039 312.378 7.25279 297.873 1.97701 285.016C1.81885 286.169 1.81885 287.321 1.64939 288.643C6.26993 300.674 10.5516 314.028 14.0198 329.03C15.9968 337.096 24.7295 340.068 31.1576 342.372ZM3.79585 340.395C8.74402 346.168 13.6809 349.139 20.4479 350.292C27.2036 354.076 33.9593 357.375 40.218 360.504C43.6862 362.154 47.1431 363.972 50.6001 365.611L60.1688 370.401C66.2579 373.36 74.1773 377.314 82.2548 381.11C89.3381 383.257 96.5909 384.24 103.844 384.24C113.898 384.24 124.111 382.263 134.504 378.309C139.938 376.332 145.383 373.53 150.817 370.401C157.076 365.949 163.673 360.177 169.932 354.404C178.179 346.993 186.584 339.412 194.82 334.792C220.205 324.737 248.719 322.602 276.08 320.456C325.359 316.66 376.456 312.706 410.246 262.275C416.019 255.678 421.452 248.267 426.231 240.189C431.179 231.784 435.8 222.554 439.584 212.658C440.409 211.178 441.731 210.353 443.38 210.184C449.808 209.359 461.84 217.109 469.748 224.859C475.679 229.638 480.627 234.258 483.598 237.218C489.202 242.494 494.636 248.097 499.256 252.876C501.064 254.695 502.883 256.672 504.521 258.479C518.371 272.985 532.549 287.988 548.704 299.194C555.121 303.804 561.391 307.272 567.819 310.074C592.706 321.439 619.571 321.439 646.436 318.976C646.436 318.479 646.436 317.812 646.436 317.326C619.899 319.631 593.034 319.8 568.643 308.582C562.373 305.781 556.284 302.324 549.856 297.873C534.029 286.666 519.693 271.833 506.012 257.327C504.193 255.52 502.385 253.543 500.736 251.724C496.116 246.945 490.682 241.342 485.078 235.896C482.107 232.936 477.17 228.316 471.228 223.537C464.472 216.951 451.458 207.382 443.38 208.546C441.064 208.874 439.426 210.026 438.263 212.003C434.309 221.888 429.858 231.118 424.921 239.365C420.142 247.273 414.866 254.695 409.093 261.281C375.801 311.056 327.347 314.852 276.08 318.806C248.561 320.953 220.046 323.088 194.165 333.312C185.759 338.091 177.185 345.84 168.949 353.251C162.679 358.855 156.251 364.628 150.162 369.079C144.886 372.208 139.441 374.682 134.165 376.829C116.7 383.584 99.562 384.409 83.0794 379.63C75.002 375.835 67.0826 371.88 61.1516 368.909L51.5942 364.131C48.1373 362.481 44.669 360.674 41.2121 359.024C34.9422 355.895 28.0283 352.427 21.2613 348.8C21.1031 348.8 21.1031 348.8 21.1031 348.642C14.675 347.49 10.0545 344.688 5.27578 339.243C3.46823 335.944 1.64939 332.487 0 329.03C0 330.341 0.169458 331.663 0.169458 332.984C1.32177 335.617 2.47408 337.921 3.79585 340.395ZM569.626 334.464C563.368 331.99 557.267 328.691 551.009 324.579C532.052 312.209 515.242 294.088 501.391 278.091C496.285 272.16 491.337 266.399 486.4 260.298C484.581 258.152 482.774 255.847 480.797 253.373C478.978 251.068 477.001 248.594 474.854 246.12C473.702 245.126 472.55 244.143 471.397 243.149C462.992 236.066 453.593 227.988 447.492 228.982C445.854 229.31 444.363 230.293 443.38 232.112C439.257 243.319 434.478 253.543 429.202 262.603C424.096 271.008 418.323 278.758 412.065 285.514L410.743 286.835C393.266 303.646 376.783 319.631 357.669 325.065C331.459 335.119 304.436 340.892 278.227 346.338C237.184 355.07 198.288 363.148 162.194 387.041C155.099 389.843 147.846 392.148 141.09 393.797C117.683 399.4 95.9356 398.576 76.4819 391.165C68.5739 388.86 59.9993 386.217 49.7754 382.76C43.3473 380.613 36.5916 378.309 28.3559 375.337C18.629 372.705 10.2239 368.085 2.8017 362.481C2.97116 363.306 2.97116 363.972 3.14062 364.797C10.3934 370.062 18.4596 374.355 27.8588 376.829C35.9363 379.63 42.692 381.935 49.1201 384.24C59.3441 387.708 67.9073 390.34 75.8267 392.645C87.0335 396.938 98.8955 399.073 111.424 399.073C120.981 399.073 131.036 397.751 141.26 395.288C148.185 393.639 155.427 391.323 162.679 388.521C162.679 388.521 162.849 388.521 162.849 388.363C198.785 364.797 237.354 356.55 278.385 347.817C304.594 342.214 331.629 336.611 357.996 326.556C377.45 320.953 394.091 304.956 411.726 287.988L413.047 286.666C419.475 279.91 425.407 272.002 430.524 263.428C435.958 254.356 440.737 243.974 444.86 232.767C445.515 231.445 446.51 230.79 447.831 230.632C453.096 229.638 462.665 237.873 470.403 244.471C471.567 245.465 472.877 246.448 473.871 247.442C475.848 249.747 477.825 252.221 479.633 254.525C481.61 256.999 483.429 259.304 485.406 261.451C490.354 267.551 495.291 273.313 500.408 279.244C514.417 295.399 531.227 313.531 550.342 326.059C556.77 330.341 563.04 333.47 569.299 336.114C592.876 347.32 619.741 345.999 645.939 344.022C645.939 343.525 645.939 342.869 646.108 342.372C619.571 344.022 592.876 345.513 569.626 334.464ZM567.163 355.228C561.718 352.269 556.442 348.8 550.681 344.349C536.503 333.312 523.15 318.637 510.293 304.628L505.842 299.85C500.239 293.749 494.308 287.321 488.038 281.062C484.084 277.606 480.13 273.313 476.345 269.2C473.205 265.732 469.917 262.275 466.777 259.304C459.863 251.893 453.096 248.594 447.662 249.916C444.205 250.73 441.561 253.373 440.409 257.327C437.28 267.212 433.653 276.442 429.53 284.689C391.131 355.398 322.896 368.085 256.796 380.286C227.299 385.72 196.808 391.323 169.446 402.044C161.369 403.851 153.291 405.343 145.214 406.326C120.326 409.455 95.9356 408.472 72.3584 403.196C67.0826 402.044 61.8181 400.892 56.3729 399.739L48.2954 397.92C41.0426 396.271 33.7899 394.791 26.7065 393.142C20.606 391.82 13.6809 390.34 6.76701 388.691C6.92517 389.346 7.09463 389.843 7.09463 390.51C13.6809 391.989 20.2784 393.469 26.2094 394.791C33.4622 396.441 40.715 397.92 47.7984 399.57L55.8758 401.377C61.1516 402.541 66.5969 403.693 71.8726 404.846C86.7058 408.144 101.867 409.794 117.355 409.794C126.585 409.794 135.984 409.127 145.383 407.975C153.45 406.992 161.527 405.501 169.774 403.524C197.136 392.814 227.457 387.211 256.966 381.935C323.382 369.734 392.114 357.047 430.852 285.514C434.975 277.108 438.602 267.879 441.731 257.824C442.714 254.356 444.86 252.221 447.831 251.554C450.633 250.899 456.722 251.227 465.466 260.456C468.596 263.428 471.894 266.884 475.024 270.353C478.978 274.465 482.932 278.758 486.728 282.215C492.986 288.315 498.917 294.743 504.362 300.844L508.814 305.623C521.67 319.801 535.023 334.295 549.359 345.513C554.963 349.953 560.396 353.579 566 356.55C585.454 365.78 608.534 365.78 630.62 365.949C634.732 365.949 638.686 365.949 642.809 366.108C642.809 365.611 642.979 364.955 642.979 364.458C638.855 364.458 634.732 364.3 630.62 364.3C609.019 364.3 586.278 364.3 567.163 355.228ZM581.997 386.544C575.072 384.24 568.316 380.941 561.391 376.659C542.434 364.458 525.951 345.343 510.135 326.884L508.644 325.065C503.041 318.479 497.437 312.051 491.664 305.95C488.705 303.148 485.903 300.019 482.932 296.72C482.107 295.726 481.124 294.743 480.299 293.749C476.673 289.795 472.55 285.514 468.596 282.384C460.846 274.804 451.458 273.81 442.714 279.741C435.303 284.689 429.53 294.088 428.208 302.979C405.636 390.837 331.132 396.599 259.101 402.044C228.937 404.349 200.593 406.495 175.874 414.234C167.3 415.725 159.392 416.877 151.642 417.86C116.53 422.311 84.5594 422.48 53.7407 418.199C45.4937 417.205 37.2581 416.222 29.0112 415.228C24.5601 414.731 19.2843 414.075 13.5227 413.251C13.6809 413.906 13.8503 414.403 14.0198 415.058C19.4537 415.725 24.5601 416.38 28.853 416.877C37.0886 417.86 45.3356 418.854 53.5712 419.848C84.3899 423.96 116.53 423.96 151.811 419.509C159.55 418.527 167.469 417.374 176.202 415.883C200.762 408.144 229.107 405.998 259.101 403.693C331.787 398.248 406.789 392.487 429.858 303.318C431.179 294.913 436.625 286.011 443.708 281.232C448.487 278.091 457.886 273.979 467.601 283.695C471.725 286.835 475.521 290.948 479.147 294.913C479.972 295.896 480.955 296.89 481.779 297.873C484.581 301.002 487.552 304.301 490.512 307.102C496.285 313.203 501.719 319.631 507.322 326.229L508.814 328.036C524.799 346.665 541.112 365.78 560.396 378.139C567.322 382.59 574.247 386.058 581.5 388.363H581.658L585.951 388.691C603.089 390.012 620.565 391.492 637.872 394.622C638.031 394.136 638.2 393.639 638.2 392.972C620.893 389.685 603.258 388.363 586.109 387.041L581.997 386.544ZM603.258 415.228C595.836 414.9 588.583 413.42 581.658 410.777C563.368 405.173 546.23 391.165 527.928 366.932C525.296 363.803 522.653 360.832 520.02 357.703C518.54 356.053 517.219 354.404 515.739 352.596C512.112 348.315 507.819 343.366 503.368 338.588C496.285 330.838 490.026 324.737 483.756 319.462C478.153 313.7 472.877 309.577 467.601 307.272C459.693 305.453 452.938 306.278 446.837 309.746C441.561 312.706 436.952 317.654 432.332 324.737C432.332 324.737 432.332 324.907 432.174 324.907C419.973 371.225 394.757 400.395 355.036 413.578C319.925 425.282 278.724 423.633 238.834 421.983C220.871 421.159 203.722 420.504 187.567 421.001C180.156 421.486 172.903 421.983 165.481 422.481C121.479 425.779 87.5305 429.733 55.5482 435.167C49.2896 435.992 42.5339 436.658 35.6087 437.144C30.6605 437.483 26.0513 437.811 22.086 437.969C22.2554 438.466 22.5831 438.963 22.7525 439.618C26.7065 439.46 30.9882 439.133 35.7669 438.794C42.692 438.308 49.6172 437.641 55.8758 436.817C87.8581 431.383 121.648 427.429 165.651 424.13C172.903 423.633 180.326 423.136 187.567 422.65C203.722 422.153 220.702 422.808 238.664 423.633C317.123 426.932 405.964 430.558 433.653 325.562C437.935 318.806 442.556 314.028 447.492 311.226C453.265 307.927 459.693 307.272 466.946 308.752C471.725 310.898 476.831 314.852 482.435 320.625C488.705 325.89 494.963 331.99 502.058 339.74C506.509 344.519 510.791 349.467 514.247 353.749C515.739 355.398 517.049 357.047 518.54 358.855C521.173 361.995 523.805 365.125 526.279 368.085C544.739 392.645 562.046 406.653 580.675 412.426C587.758 415.058 595.18 416.549 602.93 417.035C609.358 416.708 615.945 416.877 622.373 417.532C625.016 418.199 627.818 418.685 630.62 419.182C630.778 418.685 630.947 418.199 631.105 417.532C628.304 417.035 625.502 416.38 622.7 415.883C616.442 415.058 609.686 414.9 603.258 415.228ZM614.792 442.092C579.353 441.268 554.635 430.23 538.977 408.472C534.357 403.693 529.42 398.418 524.144 392.148C519.196 386.386 514.417 380.455 509.796 374.682C505.187 368.909 500.736 363.475 496.285 358.2C490.682 351.941 485.575 347.49 480.797 344.519C478.978 343.525 469.748 338.418 463.489 342.045L463.32 342.214C459.524 346.168 455.739 350.122 451.944 354.076C449.311 356.878 446.668 359.68 444.036 362.481C439.912 366.605 435.63 370.886 431.179 375.01C374.976 449.673 283.661 473.905 209.325 433.518C209.167 433.518 208.998 433.36 208.998 433.36C200.265 433.032 191.532 433.19 182.133 433.687C173.4 434.015 164.498 434.84 155.765 435.834C118.18 439.946 81.7577 449.345 51.0971 457.92C45.3356 459.897 39.3933 461.377 32.9652 462.201C33.1346 462.698 33.4622 463.196 33.7899 463.681C40.0598 462.698 45.9908 461.377 51.5942 459.4C82.0853 450.825 118.349 441.595 155.924 437.483C164.668 436.489 173.559 435.834 182.303 435.337C191.532 434.84 200.265 434.84 208.84 435.009C283.988 475.555 375.97 451.164 432.659 376.004C436.952 372.039 441.234 367.757 445.515 363.634C448.159 360.832 450.791 358.03 453.435 355.228C457.219 351.274 460.846 347.32 464.642 343.525C468.923 341.22 475.679 343.366 480.13 345.999C484.751 348.97 489.687 353.251 495.291 359.352C499.742 364.628 504.193 370.062 508.814 375.834C513.423 381.607 518.371 387.538 523.15 393.311C528.595 399.57 533.374 405.004 537.983 409.624C553.81 431.71 579.026 442.917 614.962 443.911C617.266 443.911 619.741 443.911 622.045 443.911C622.215 443.414 622.542 442.748 622.7 442.262C619.899 442.092 617.266 442.092 614.792 442.092ZM583.974 463.026C558.419 456.27 539.463 440.443 526.448 414.403C526.448 414.403 526.448 414.234 526.279 414.234C519.523 406.992 513.75 401.547 508.147 397.265C493.314 386.217 479.305 383.087 463.647 387.369C456.722 389.188 449.967 392.317 443.053 396.938C437.438 400.564 431.835 405.343 425.079 411.601C420.797 415.555 415.194 420.831 409.263 426.276C382.726 455.773 350.088 473.408 314.818 477.532C279.876 481.655 245.589 471.928 215.595 449.515C215.426 449.515 215.426 449.345 215.426 449.345C207.676 447.041 200.423 446.216 193.182 446.871C185.929 446.543 178.676 446.543 171.751 446.871C164.498 447.199 157.245 447.696 150.32 448.521C119.671 452.316 91.9703 462.032 66.0998 478.029C59.3441 481.158 51.9218 481.486 46.8155 481.486C45.6632 481.486 44.5109 481.486 43.3586 481.486C43.6862 481.983 44.0138 482.638 44.3414 483.135C45.1661 483.135 45.9908 483.135 46.8155 483.135C52.0913 483.135 59.8298 482.807 66.9245 479.509C92.795 463.681 120.157 454.124 150.648 450.17C157.573 449.345 164.668 448.69 171.909 448.521C178.834 448.193 185.929 448.193 193.34 448.521C200.423 447.865 207.518 448.69 214.929 450.825C245.262 473.408 279.876 483.135 315.146 479.012C350.743 474.888 383.709 456.926 410.573 427.259C416.516 421.983 422.119 416.708 426.401 412.754C432.998 406.495 438.602 401.874 444.036 398.248C450.791 393.797 457.389 390.668 464.145 389.018C479.305 384.895 492.986 387.866 507.322 398.576C512.937 402.869 518.699 408.144 525.296 415.228C538.649 441.595 557.764 457.75 583.804 464.676C591.226 466.652 598.965 467.805 607.867 468.46C608.692 468.46 609.686 468.46 610.669 468.46C610.997 467.974 611.335 467.308 611.494 466.822C610.341 466.822 609.02 466.822 607.867 466.822C598.965 465.997 591.227 464.834 583.974 463.026ZM577.376 491.868C571.276 490.885 565.842 489.066 560.396 486.434C544.083 477.035 531.882 462.529 520.179 448.362C514.247 441.11 507.989 433.687 501.233 427.09C492.986 420.662 482.774 418.527 473.374 421.159H473.205C466.449 424.955 460.349 428.412 454.587 431.541C447.99 435.167 441.731 438.466 435.8 441.437C426.401 446.544 416.674 452.316 407.286 457.92C343.333 495.664 277.075 534.56 217.572 463.681C213.776 459.4 207.348 459.569 201.745 459.897C199.44 460.055 197.136 460.055 195.159 459.897C186.584 459.569 178.507 459.569 170.757 459.897C162.352 460.224 154.444 460.88 146.863 462.032C113.898 466.822 83.9041 479.509 55.3901 500.601C55.7177 501.098 56.0453 501.425 56.3729 501.922C84.7288 480.989 114.395 468.46 147.191 463.681C154.771 462.529 162.521 461.874 170.926 461.546C178.676 461.219 186.584 461.219 195.159 461.546C197.294 461.704 199.44 461.704 201.914 461.546C207.348 461.377 213.121 461.049 216.42 464.834C243.443 496.974 274.6 509.503 311.35 502.916C343.83 497.144 376.625 477.859 408.269 459.23C417.668 453.627 427.384 448.023 436.625 442.917C442.556 439.946 448.984 436.489 455.57 433.032C461.343 429.891 467.443 426.435 474.199 422.65C483.101 420.176 492.659 422.153 500.408 428.253C506.995 434.84 513.265 442.262 519.196 449.345C531.058 463.523 543.428 478.187 559.911 487.744C565.514 490.546 571.276 492.365 577.376 493.359C582.979 494.172 588.752 494.342 595.011 493.845C595.339 493.845 595.678 493.687 595.836 493.687C596.163 493.02 596.66 492.365 596.988 491.868C596.163 492.037 595.508 492.195 594.683 492.365C588.425 492.862 582.821 492.692 577.376 491.868ZM560.396 514.778C555.29 510.824 550.184 506.701 545.405 502.747C521.67 483.463 496.94 463.523 465.297 463.523C457.886 463.681 449.808 464.506 440.579 466.155C398.711 478.356 359.815 501.098 322.229 523.025C315.801 526.81 309.215 530.606 302.787 534.39C293.388 539.836 281.029 545.597 268.997 542.795C252.514 536.537 241.793 521.534 231.581 506.87C218.894 489.066 205.868 470.607 182.303 469.127C175.536 468.302 169.107 468.132 162.849 468.46C156.093 468.799 149.337 469.951 142.74 471.759C126.585 476.052 112.576 487.089 99.0649 497.799C88.841 505.876 78.956 513.457 68.5739 518.405C68.9015 518.902 69.2291 519.23 69.5567 519.727C80.1083 514.779 89.8352 507.198 100.048 499.121C113.401 488.569 127.251 477.69 143.067 473.408C149.496 471.601 156.093 470.607 162.849 470.109C169.107 469.782 175.377 469.951 182.133 470.776C204.874 472.256 217.245 489.563 230.259 507.853C240.811 522.528 251.52 537.859 268.669 544.287C270.974 544.772 273.279 545.111 275.583 545.111C285.977 545.111 295.862 540.333 303.77 535.712C310.198 531.916 316.795 528.132 323.224 524.336C360.798 502.419 399.694 479.836 441.234 467.647C450.294 465.997 458.214 465.173 465.466 465.003C496.454 465.003 520.845 484.784 544.411 503.741C549.359 507.695 554.465 511.819 559.572 515.773C564.52 518.902 569.796 520.709 575.727 521.207C576.224 520.551 576.721 520.054 577.218 519.399C577.049 519.399 576.721 519.557 576.551 519.557C570.62 519.557 565.345 517.908 560.396 514.778ZM509.311 513.457C486.23 497.313 462.495 480.661 432.332 493.02C424.582 495.336 416.843 497.968 408.766 501.267C385.686 510.824 363.6 523.681 342.18 536.209C320.919 548.738 298.833 561.594 275.753 571.151C269.155 573.625 259.44 574.281 251.848 568.508C239.331 558.623 231.253 543.62 223.503 529.115C211.302 506.373 199.768 485.112 172.576 483.305C165.82 481.983 158.895 482.31 151.473 484.287C144.886 486.106 138.616 488.908 132.527 491.868C121.976 497.968 113.073 506.701 104.341 515.276C96.9185 522.528 89.8352 529.453 82.0853 534.729C82.4129 535.057 82.7405 535.543 83.2376 536.04C90.9875 530.764 98.0708 523.85 105.493 516.597C114.056 508.023 122.958 499.29 133.341 493.359C139.441 490.546 145.542 487.744 151.97 485.937C159.053 483.96 165.82 483.632 172.406 484.943C198.785 486.592 210.15 507.695 222.182 529.939C230.101 544.614 238.178 559.617 251.035 569.83C255.644 573.298 260.92 574.778 266.026 574.778C269.822 574.778 273.448 573.953 276.577 572.801C299.816 563.243 321.902 550.218 343.333 537.689C364.594 525.161 386.68 512.304 409.59 502.747C417.668 499.448 425.248 496.816 433.156 494.511C462.495 482.48 485.903 498.793 508.644 514.62C524.799 525.985 541.451 537.531 560.069 538.683C560.238 538.683 560.566 538.683 560.735 538.683C561.221 538.186 561.718 537.689 562.215 537.034C561.549 537.034 560.894 537.034 560.069 537.034C541.779 536.209 525.296 524.675 509.311 513.457ZM497.934 534.232C477.001 512.801 455.412 490.546 428.547 508.023C420.955 510.994 413.375 514.451 405.139 518.902C388.815 527.635 372.999 538.344 357.669 548.738C329.652 567.683 300.471 587.464 266.026 596.864C254.322 599.496 242.291 599.993 232.406 585.815C225.48 575.93 220.702 564.226 216.081 552.85C207.19 531.261 198.943 510.994 177.524 503.572C170.599 501.922 163.673 502.092 156.918 503.741C150.987 505.221 145.214 507.853 139.283 511.977C129.714 518.574 120.981 527.635 112.576 536.537C107.798 541.485 103.019 546.591 98.0708 551.37C98.3984 551.698 98.8955 552.195 99.2231 552.522C104.171 547.913 109.119 542.795 113.898 537.689C122.303 528.787 130.878 519.727 140.266 513.299C146.039 509.345 151.642 506.701 157.245 505.221C163.843 503.572 170.429 503.402 177.027 505.052C197.622 512.146 205.868 532.086 214.601 553.347C219.38 564.723 224.159 576.585 231.084 586.64C238.178 596.864 246.583 599.824 254.989 599.824C258.943 599.824 262.897 599.168 266.523 598.344C301.296 588.786 330.476 569.005 358.663 549.89C373.982 539.508 389.809 528.787 405.964 520.224C414.2 515.931 421.78 512.304 429.202 509.503H429.372C455.242 492.534 476.345 514.281 496.782 535.385C505.187 543.959 513.75 552.85 522.494 558.792C526.279 561.255 530.075 563.243 534.029 564.723C534.526 564.396 535.023 563.899 535.509 563.401C531.397 561.922 527.273 559.945 523.319 557.301C514.745 551.539 506.509 543.134 497.934 534.232ZM420.628 526.155C415.521 528.787 410.573 532.91 406.461 537.531C352.235 580.381 294.868 621.254 244.606 609.72C216.748 603.292 194.165 581.703 175.705 543.62C174.383 540.66 171.909 538.683 168.452 537.531C159.053 534.729 143.892 539.836 134.504 546.094C128.076 550.387 121.648 555.821 115.706 560.927L113.571 562.746C113.073 563.243 112.418 563.729 111.752 564.226C112.249 564.554 112.576 564.881 113.073 565.22C113.571 564.723 114.056 564.396 114.553 563.899L116.7 562.08C122.631 556.973 128.901 551.539 135.159 547.247C144.22 541.157 158.725 536.209 167.797 538.841C170.757 539.666 172.903 541.485 174.056 543.959C192.843 582.686 215.753 604.614 244.109 611.042C250.04 612.352 256.141 613.019 262.4 613.019C308.718 613.019 359.149 576.585 407.444 538.514C411.567 533.905 416.346 529.939 421.125 527.477C459.038 513.299 485.575 543.134 511.288 571.976C513.095 574.111 515.072 576.1 516.891 578.235C517.377 577.907 517.716 577.579 518.202 577.252C516.394 575.105 514.417 572.959 512.44 570.824C486.558 541.643 459.524 511.48 420.628 526.155ZM459.366 548.896C446.013 530.606 421.452 538.344 403.987 545.767C403.818 545.767 403.818 545.936 403.659 545.936C396.068 553.675 388.657 560.927 381.573 567.525C331.132 614.171 287.784 635.105 248.56 631.478C217.245 628.507 188.561 609.223 162.849 574.45C160.872 571.807 158.398 570.157 155.596 569.83C148.998 569.005 140.932 574.111 132.188 580.709C132.685 581.036 133.182 581.364 133.51 581.703C141.757 575.433 149.337 570.654 155.268 571.479C157.742 571.807 159.719 573.128 161.527 575.433C180.811 601.642 201.914 619.108 224.497 627.524C228.779 628.835 233.061 630.157 237.512 631.309C241.138 632.134 244.765 632.631 248.391 632.958C251.362 633.286 254.492 633.455 257.463 633.455C294.709 633.455 335.752 612.194 382.556 568.677C389.64 562.08 397.062 554.827 404.484 547.247C439.426 532.255 451.616 541.485 457.716 549.89C471.894 567.683 487.225 579.884 504.035 587.137C504.521 586.809 505.018 586.312 505.684 585.985C489.032 579.059 473.702 566.87 459.366 548.896ZM429.202 557.143C424.254 555.324 419.475 558.126 414.866 560.769C412.223 562.249 409.59 563.729 407.116 564.226C406.947 564.226 406.947 564.226 406.947 564.226C400.191 567.853 393.266 572.304 386.013 577.41C374.806 585.329 363.927 594.062 353.387 602.625C338.881 614.329 323.879 626.53 307.724 636.415C304.594 638.392 301.635 640.211 298.494 641.691C299.488 641.691 300.64 641.86 301.635 641.86C303.939 640.539 306.244 639.217 308.548 637.737C324.873 627.852 339.864 615.651 354.37 603.789C364.921 595.214 375.631 586.482 387.007 578.562C394.26 573.456 401.016 569.333 407.613 565.548C410.246 564.881 413.047 563.402 415.691 561.922C419.973 559.448 424.582 556.815 428.875 558.453C429.033 558.453 429.033 558.453 429.202 558.453C450.633 558.453 467.274 573.298 483.259 587.464C486.061 589.939 489.032 592.582 491.834 595.045C492.331 594.717 492.828 594.39 493.314 594.22C490.354 591.757 487.383 588.956 484.423 586.312C468.099 572.134 451.288 557.143 429.202 557.143ZM162.679 594.887C159.878 594.559 157.076 594.717 154.116 595.214C154.771 595.711 155.596 596.039 156.251 596.536C158.398 596.367 160.375 596.367 162.352 596.536C169.774 597.361 176.202 601.812 181.478 609.392C181.805 609.878 181.964 610.217 182.303 610.703C183.127 611.2 184.11 611.527 184.935 612.025C184.28 610.872 183.455 609.72 182.788 608.568C177.354 600.49 170.429 595.87 162.679 594.887ZM439.754 577.41C437.11 573.298 433.484 570.824 428.875 569.999C421.78 568.677 412.72 571.31 403.987 577.252C394.757 585.487 387.663 591.588 380.907 597.361C361.295 614.002 340.361 630.484 318.603 642.843C319.597 642.843 320.58 642.843 321.574 642.843C343.333 630.326 363.769 614.002 382.059 598.513C388.815 592.74 395.91 586.64 404.97 578.562C413.375 572.801 421.95 570.327 428.547 571.648C432.659 572.473 435.958 574.778 438.432 578.562C448.984 590.108 460.191 599.338 472.719 606.591C473.374 606.252 473.871 605.924 474.368 605.766C461.67 598.344 450.294 588.956 439.754 577.41ZM418.323 590.108C415.849 590.266 413.544 590.594 411.398 590.266C403.49 586.312 395.085 593.396 388.487 599.01C387.007 600.321 385.527 601.473 384.206 602.625C371.022 611.528 358.324 623.728 346.134 635.432C343.66 637.737 341.186 640.042 338.881 642.516C339.706 642.516 340.531 642.516 341.355 642.357C343.332 640.539 345.31 638.562 347.286 636.585C359.487 624.881 372.174 612.68 385.2 603.947C386.68 602.964 388.002 601.642 389.64 600.321C396.237 594.559 403.818 588.131 410.912 591.757C411.07 591.757 411.07 591.757 411.07 591.757C413.375 592.085 416.019 591.916 418.493 591.757C422.119 591.419 425.904 591.091 428.705 592.74C439.087 597.688 448.656 605.596 457.886 613.505C458.372 613.346 459.038 613.019 459.524 612.68C449.967 604.444 440.082 596.367 429.372 591.26C426.401 589.442 422.277 589.769 418.323 590.108ZM412.392 612.025C402.665 611.527 392.938 614.002 383.381 619.277C383.212 619.277 383.212 619.447 383.212 619.447C377.281 626.858 371.18 633.783 365.091 640.211C365.916 640.042 366.898 640.042 367.723 639.883C373.327 633.952 378.93 627.524 384.375 620.599C393.435 615.482 402.835 613.177 412.223 613.674C418.82 616.306 425.248 620.102 431.349 624.384C432.004 624.226 432.659 623.898 433.326 623.728C426.728 619.108 419.973 614.996 412.72 612.194C412.72 612.025 412.55 612.025 412.392 612.025ZM399.208 633.613C398.869 633.783 398.542 633.952 398.214 634.111C398.869 633.952 399.694 633.783 400.361 633.613C400.033 633.613 399.864 633.613 399.536 633.613C399.367 633.613 399.208 633.613 399.208 633.613Z" fill="#C89898" fill-opacity="0.33"/>
</g>
</svg>
