<svg width="634" height="547" viewBox="0 0 634 547" fill="none" xmlns="http://www.w3.org/2000/svg">
<mask id="mask0_1_77" style="mask-type:luminance" maskUnits="userSpaceOnUse" x="-429" y="-512" width="1063" height="1059">
<path d="M-429 -512L633.344 -512V546.775H-429L-429 -512Z" fill="white"/>
</mask>
<g mask="url(#mask0_1_77)">
<path d="M11.7039 -510.848C12.782 -511.126 13.8601 -511.126 14.9568 -511.387C44.2329 -479.397 76.7806 -461.496 112.042 -458.243C151.356 -454.433 195.298 -468.541 243.032 -499.992C244.11 -499.732 245.467 -499.453 246.545 -499.193C197.473 -466.366 152.453 -451.459 111.763 -455.53C75.1635 -459.043 41.5377 -477.761 11.7039 -510.848ZM111.503 -429.767C149.739 -427.053 207.232 -436.272 277.476 -489.155C276.379 -489.416 275.301 -489.973 274.483 -490.233C205.596 -438.707 149.2 -429.767 111.763 -432.48C63.2299 -435.994 20.1057 -460.4 -17.0518 -505.16C-18.1299 -504.881 -18.9478 -504.621 -20.0259 -504.342C17.6707 -458.504 61.873 -433.28 111.503 -429.767ZM-219.903 -409.691C-222.078 -408.074 -224.513 -406.16 -226.688 -404.543C-235.368 -392.888 -246.205 -383.389 -259.496 -376.605C-261.67 -374.709 -263.827 -372.534 -265.741 -370.638C-263.566 -371.456 -261.131 -372.534 -258.957 -373.631C-242.673 -382.032 -229.402 -394.505 -219.903 -409.691ZM-80.2326 -482.371C-70.4738 -483.189 -61.2542 -482.371 -51.2166 -480.475C-40.3798 -478.3 -29.2456 -474.508 -17.312 -468.82C-11.0851 -465.009 -4.83948 -461.217 1.66635 -457.147C44.233 -430.845 90.889 -402.107 139.701 -402.107C155.705 -402.107 171.97 -405.36 188.513 -412.405C208.849 -422.164 229.463 -434.637 249.259 -447.128C267.159 -458.243 285.338 -469.619 304.038 -479.118C302.96 -479.657 301.882 -479.936 300.785 -480.475C282.625 -471.255 265.263 -460.4 247.902 -449.563C228.106 -437.35 207.771 -424.618 187.695 -415.119C122.619 -386.103 59.1592 -425.157 3.28351 -459.6C-3.22229 -463.653 -9.44931 -467.463 -15.6949 -471.255C-27.8886 -476.943 -39.2831 -481.014 -50.1385 -483.189C-60.1761 -485.085 -69.656 -485.902 -79.4147 -485.085C-79.9724 -485.363 -80.5114 -485.363 -81.0504 -485.624C-82.4074 -485.085 -84.0431 -484.545 -85.3815 -484.006C-83.4855 -483.467 -81.8683 -482.91 -80.2326 -482.371C-80.5114 -482.371 -80.7716 -482.649 -80.2326 -482.371ZM-250.555 -314.502C-209.866 -329.428 -178.415 -371.995 -171.091 -423.261C-165.663 -434.637 -160.775 -444.135 -155.904 -451.998C-157.522 -451.18 -159.157 -450.102 -160.775 -449.284C-165.124 -442.239 -169.195 -434.098 -173.805 -424.339V-424.06C-181.128 -373.631 -211.762 -331.863 -251.633 -317.216C-272.247 -309.353 -293.66 -309.892 -313.457 -318.034C-314.014 -317.216 -314.553 -316.398 -315.371 -315.859C-304.237 -311.249 -292.861 -308.814 -281.188 -308.814C-271.15 -308.814 -260.853 -310.71 -250.555 -314.502ZM-260.574 -279.798C-198.211 -291.174 -133.394 -353.834 -103.561 -432.202C-98.4117 -442.778 -89.9913 -447.388 -78.0764 -446.57C-67.2209 -445.771 -54.4695 -440.603 -42.536 -434.915C-40.101 -433.837 -37.3871 -432.48 -34.9521 -431.384C-29.2455 -428.67 -24.0967 -426.235 -18.9478 -424.06C41.5377 -390.713 104.718 -381.754 174.684 -396.94C223.775 -407.517 275.84 -430.584 333.612 -466.645C332.515 -467.184 331.697 -467.463 330.619 -468.002C238.143 -410.23 110.685 -355.452 -17.8697 -426.774C-23.0186 -428.949 -28.1674 -431.384 -33.8554 -434.098C-36.309 -435.454 -39.0229 -436.551 -41.4579 -437.889C-53.6517 -443.596 -66.4031 -449.024 -77.7975 -449.823C-90.8092 -450.641 -100.029 -445.492 -105.735 -433.837C-135.29 -356.269 -199.289 -294.446 -260.853 -283.051C-285.798 -278.441 -309.944 -282.233 -332.175 -293.628C-332.714 -292.81 -333.253 -291.992 -333.811 -291.453C-317.267 -282.772 -299.906 -278.441 -281.727 -278.441C-274.961 -277.902 -267.897 -278.441 -260.574 -279.798ZM-245.127 -246.972C-176.779 -254.574 -103.839 -312.067 -62.8899 -389.895C-54.7484 -399.115 -38.744 -402.907 -26.5317 -398.297C95.759 -344.875 216.711 -359.801 322.756 -440.882C331.697 -448.466 342.552 -453.076 353.668 -455.79C352.59 -456.347 351.233 -457.147 350.155 -457.704C339.578 -454.712 329.541 -450.102 321.139 -443.057C215.912 -362.515 96.0378 -347.868 -25.4536 -400.751C-38.7441 -405.899 -55.8265 -401.829 -64.7859 -391.531L-65.0461 -391.252C-105.457 -314.242 -177.876 -257.288 -245.127 -249.425C-280.649 -245.355 -313.736 -255.113 -342.751 -277.084C-343.291 -276.266 -343.83 -275.449 -344.108 -274.91C-319.163 -255.652 -290.947 -245.894 -260.853 -245.894C-255.964 -246.172 -250.555 -246.433 -245.127 -246.972ZM-211.501 -209.275C-150.198 -213.885 -93.8018 -249.686 -57.1834 -307.457C-50.9564 -315.041 -43.8929 -323.183 -37.1083 -330.228C-29.2456 -337.83 -22.2007 -343.518 -15.1558 -347.589C-6.73544 -350.842 2.20541 -352.477 13.0608 -352.738C118.548 -322.105 215.094 -366.307 308.388 -408.874C330.08 -418.911 352.311 -428.949 374.561 -438.168C377.535 -438.447 380.528 -438.707 383.502 -438.707C382.145 -439.525 380.788 -440.343 379.431 -441.421C377.814 -441.421 375.918 -441.161 374.282 -440.882H374.003C351.772 -431.662 329.262 -421.346 307.57 -411.587C214.555 -369.021 118.548 -325.079 13.8601 -355.73C13.5999 -355.73 13.5999 -355.73 13.5999 -355.73C2.48419 -355.452 -7.01425 -353.834 -15.9551 -350.303C-23.5576 -345.972 -30.6025 -340.265 -38.744 -332.402C-45.7889 -325.079 -52.8524 -316.937 -59.3582 -309.074C-95.6978 -252.139 -151.295 -216.599 -211.762 -211.989C-262.488 -208.197 -312.657 -226.636 -351.971 -263.515C-352.51 -262.716 -353.049 -261.898 -353.328 -261.08C-316.988 -227.454 -271.429 -208.736 -224.792 -208.736C-220.442 -208.736 -215.832 -209.015 -211.501 -209.275ZM-21.6617 -252.678C-9.44931 -259.184 1.38751 -265.411 11.7039 -271.118C20.1057 -275.988 28.5074 -281.155 38.006 -286.843C46.1475 -289.018 54.0103 -291.453 62.1332 -293.628C151.635 -319.112 236.247 -342.979 318.425 -398.576C338.482 -409.97 361.271 -408.874 381.327 -407.517C385.398 -407.256 389.469 -406.978 393 -406.978C402.48 -405.36 411.7 -402.368 420.659 -398.855C429.879 -395.044 439.099 -389.895 447.779 -383.928C461.33 -374.709 474.62 -362.515 487.372 -347.589L487.651 -347.31C490.625 -345.414 493.617 -342.161 496.87 -339.187C500.923 -334.837 505.272 -330.506 509.603 -328.871C507.447 -331.584 505.272 -334.038 502.837 -336.752C501.48 -338.09 500.123 -339.447 498.766 -341.083C495.774 -344.336 492.521 -347.589 489.268 -349.764C476.516 -364.671 462.966 -376.884 449.396 -386.363C440.456 -392.609 431.236 -397.498 421.737 -401.55C412.797 -405.36 403.038 -408.074 393.261 -409.97C389.469 -409.97 385.398 -410.23 381.327 -410.509C360.732 -411.587 337.664 -412.944 316.789 -401.011C235.169 -345.693 150.817 -321.826 61.334 -296.602C53.1924 -294.446 45.0508 -291.992 36.9279 -289.557C36.9279 -289.557 36.649 -289.557 36.649 -289.278C27.1506 -283.311 18.4699 -278.162 10.347 -273.553C0.0305786 -267.586 -10.8062 -261.619 -23.0186 -254.834C-154.808 -151.782 -283.642 -176.746 -359.834 -249.686C-360.373 -248.868 -360.931 -248.068 -361.191 -247.251C-314.814 -202.23 -260.853 -183.512 -206.613 -183.512C-140.978 -183.512 -74.8049 -210.911 -21.6617 -252.678ZM-58.5403 -177.285C-46.3466 -181.616 -34.1342 -186.505 -22.2007 -191.932C-10.2672 -195.185 1.66635 -199.256 13.321 -203.587C24.7155 -207.918 36.3702 -213.086 47.5045 -218.495C58.6201 -223.923 69.7357 -230.168 80.8514 -236.934C87.636 -241.823 94.1418 -246.711 100.927 -251.582C189.331 -315.599 289.409 -388.278 394.896 -375.787C406.83 -372.274 418.485 -367.125 429.6 -360.34C441.273 -353.277 452.389 -344.057 462.966 -333.22C474.081 -321.826 484.937 -307.996 495.235 -291.992C495.513 -291.732 495.774 -291.453 496.052 -291.453C518.024 -284.668 538.08 -274.631 557.876 -262.437C556.798 -264.054 555.72 -265.69 554.902 -267.326C536.723 -278.162 517.745 -287.382 497.67 -293.628C487.093 -309.892 476.256 -323.722 465.141 -335.395C454.285 -346.511 442.891 -355.73 431.236 -363.054C420.12 -369.82 408.187 -375.248 395.714 -378.78C288.852 -391.252 188.253 -318.294 99.5696 -254.035C92.7849 -249.147 86.0003 -244.258 79.4945 -239.648C68.6391 -233.142 57.5234 -226.915 46.4077 -221.209C35.2921 -215.781 23.6374 -210.632 12.243 -206.301C0.84848 -201.951 -11.0851 -198.16 -23.0186 -194.646C-34.9521 -189.219 -47.1458 -184.33 -59.3582 -179.999C-181.668 -136.875 -293.121 -156.671 -368.254 -234.239C-368.793 -233.421 -369.054 -232.603 -369.593 -231.785C-319.981 -181.077 -255.165 -154.775 -181.668 -154.775C-142.874 -154.775 -101.386 -162.359 -58.5403 -177.285ZM-146.146 -134.7C-133.116 -134.7 -120.104 -135.239 -106.813 -136.596L-94.3409 -138.492C-31.4203 -148.269 33.3961 -158.288 92.7849 -187.044C101.187 -191.375 109.328 -195.985 116.912 -201.152C129.125 -209.015 140.779 -217.956 151.635 -227.993C216.711 -312.067 285.599 -358.165 356.382 -364.95C370.49 -363.853 384.58 -359.522 398.149 -352.477C416.05 -342.161 429.34 -321.547 443.43 -299.316C448.04 -291.992 452.928 -284.408 458.077 -277.084C465.68 -266.229 472.464 -258.366 479.509 -251.86L479.769 -251.582C494.956 -243.719 509.603 -237.213 521.815 -232.064C545.143 -224.74 567.914 -212.807 590.424 -200.055C589.885 -201.412 589.346 -202.769 588.528 -204.126C567.096 -216.339 545.144 -227.454 522.633 -234.499C510.421 -239.648 496.052 -245.894 480.866 -253.756C474.081 -260.002 467.576 -267.865 459.973 -278.441C455.103 -285.486 450.214 -293.089 445.344 -300.394C431.236 -322.644 417.667 -343.797 399.227 -354.373C385.398 -361.697 370.75 -366.028 356.122 -367.125C284.242 -360.34 214.815 -313.684 149.46 -229.35C138.883 -219.592 127.229 -210.911 115.295 -203.048C107.693 -198.16 99.5695 -193.55 91.428 -189.219C32.5782 -160.742 -32.2383 -150.704 -94.8799 -140.945L-107.353 -139.05C-121.721 -137.693 -136.108 -136.875 -149.938 -137.135C-235.907 -137.953 -313.457 -168.326 -373.663 -224.201C-374.202 -223.383 -374.481 -222.566 -375.02 -221.748C-314.553 -165.891 -236.446 -135.239 -149.938 -134.7C-148.581 -134.7 -147.224 -134.7 -146.146 -134.7ZM-354.685 -170.5C-305.594 -132.525 -244.309 -114.643 -163.488 -114.643C-155.626 -114.643 -147.763 -114.904 -139.621 -115.182C-126.61 -115.722 -112.501 -116.539 -95.419 -117.896C-76.4406 -120.331 -56.6443 -121.688 -37.666 -123.045C27.6896 -127.655 95.4988 -132.525 153.531 -178.363C164.107 -186.505 174.405 -195.985 183.643 -206.561L183.904 -206.84C252.512 -329.688 315.972 -344.615 356.921 -335.655C366.698 -333.759 376.457 -329.967 386.216 -324.54C406.291 -314.781 416.05 -289.018 425.548 -263.794C435.028 -238.849 444.787 -212.807 464.862 -201.412C473.542 -196.542 483.301 -194.368 494.956 -195.185C507.168 -193.289 520.18 -190.297 534.567 -185.687C556.798 -180.798 580.386 -172.396 605.071 -162.917C604.793 -163.995 604.254 -165.073 603.993 -166.169C580.126 -175.11 557.337 -183.512 535.366 -188.122C520.737 -192.732 507.707 -195.724 495.235 -197.62H494.956C483.84 -196.803 474.62 -198.699 466.219 -203.587C446.961 -214.703 437.463 -239.927 428.243 -264.612C418.485 -290.096 408.447 -316.677 387.573 -326.714C377.814 -332.402 367.776 -336.194 357.739 -338.09C315.711 -347.31 251.155 -332.124 182.008 -207.918C172.788 -197.62 162.75 -188.401 152.453 -180.259C94.9597 -134.979 27.6896 -130.369 -37.1083 -125.48C-56.1053 -124.123 -75.9016 -122.766 -94.8799 -120.331C-111.962 -118.974 -125.792 -118.157 -138.822 -117.618C-231.298 -113.826 -299.088 -131.187 -352.25 -172.396C-362.827 -180.538 -372.864 -189.758 -382.084 -199.516C-382.623 -200.334 -383.162 -201.152 -383.701 -201.691C-384.24 -200.595 -384.519 -199.795 -385.058 -198.699C-384.779 -198.438 -384.519 -198.16 -384.24 -197.62C-375.299 -187.862 -365.262 -178.642 -354.685 -170.5ZM-382.623 -139.05C-373.124 -131.187 -362.548 -124.123 -351.711 -118.157C-293.939 -86.7056 -224.513 -86.7056 -170.552 -89.9585C-154.808 -91.0366 -138.822 -92.3935 -126.61 -93.4902C-95.1588 -98.6391 -60.9753 -98.3603 -28.1674 -98.1001C43.4337 -97.5424 117.47 -97.0034 174.684 -150.425C184.721 -158.846 193.662 -168.326 201.804 -178.642C210.206 -189.758 218.068 -202.23 224.853 -215.781V-216.06C237.604 -272.474 293.74 -314.502 344.727 -306.36C353.129 -304.465 361.81 -301.212 370.211 -296.063C387.852 -286.025 399.785 -261.08 412.258 -235.038C422.277 -213.885 432.853 -191.654 447.501 -175.649C456.46 -165.612 465.94 -159.106 476.516 -155.314H476.795C489.807 -154.236 503.915 -152.34 519.641 -148.808C551.11 -145.555 584.457 -136.336 616.726 -127.116C616.466 -128.194 616.187 -129.272 615.908 -130.09C583.918 -139.05 551.11 -148.269 520.18 -151.522C504.454 -155.035 490.625 -157.21 477.334 -158.028C467.297 -161.56 458.077 -168.065 449.675 -177.545C435.567 -193.289 424.99 -215.242 414.971 -236.395C402.22 -262.976 390.286 -288.2 371.847 -298.777C363.167 -303.925 354.486 -307.457 345.545 -309.353C293.201 -317.755 235.969 -274.631 222.678 -216.878C216.172 -203.587 208.588 -191.375 200.187 -180.538C192.305 -170.222 183.086 -160.742 173.327 -152.6C116.912 -99.9961 43.4337 -100.535 -27.8886 -100.795C-60.9753 -101.074 -95.1588 -101.353 -126.61 -96.1855C-138.543 -95.1074 -154.548 -93.7505 -170.273 -92.6724C-223.974 -89.1406 -292.582 -89.4195 -349.796 -120.61C-360.652 -126.298 -370.689 -133.343 -380.169 -140.945C-385.337 -150.704 -391.025 -159.924 -396.991 -168.605C-397.27 -167.526 -397.809 -166.43 -398.069 -165.352C-392.66 -156.95 -387.233 -148.529 -382.623 -139.05C-382.883 -139.31 -382.883 -139.31 -382.623 -139.05ZM-344.647 -35.1796C-335.428 -34.0829 -326.487 -33.5438 -317.267 -33.5438C-277.117 -33.5438 -236.986 -44.1204 -197.932 -54.4368L-187.095 -57.1506C-175.422 -60.1247 -161.592 -63.6564 -147.763 -66.6305C-117.669 -69.3444 -85.3815 -68.2663 -54.2093 -67.1696C37.1881 -63.9167 131.56 -60.6638 201.804 -147.173C212.659 -157.21 222.957 -168.065 232.177 -179.72C241.935 -191.654 251.155 -204.944 259.836 -219.052C264.445 -225.019 267.698 -232.064 271.23 -239.388C275.301 -247.79 279.372 -256.749 285.878 -264.054C289.669 -266.768 293.201 -269.761 296.714 -272.474C312.458 -285.207 327.366 -297.141 352.85 -282.772C357.2 -275.449 361.81 -267.047 366.959 -257.548C371.308 -249.146 375.639 -240.466 379.71 -232.064C397.331 -196.803 415.51 -160.203 441.534 -137.414C451.85 -128.473 462.427 -122.227 474.36 -117.896C485.197 -116.261 496.87 -114.365 510.161 -111.93C540.794 -108.937 572.524 -102.97 603.436 -97.2822C610.22 -95.9253 617.005 -94.8286 623.79 -93.4902C623.511 -94.5683 623.511 -95.3862 623.232 -96.4643C616.726 -97.5424 610.499 -98.8994 603.993 -99.9961C573.342 -105.684 541.333 -111.651 510.7 -114.643C497.409 -117.078 485.476 -118.974 475.16 -120.61C463.784 -124.662 453.467 -130.908 443.43 -139.589C417.946 -162.099 400.584 -196.803 382.424 -233.421C378.353 -241.823 374.003 -250.503 369.394 -258.905C364.245 -268.943 359.635 -277.345 355.025 -284.668C355.025 -284.947 354.765 -284.947 354.486 -285.207C327.366 -300.951 310.823 -287.661 294.818 -274.91C291.305 -271.935 287.495 -269.222 283.982 -266.508L283.703 -266.229C276.918 -258.645 272.866 -249.425 268.795 -240.745C265.263 -233.421 262.01 -226.636 257.679 -220.67C249.259 -206.561 239.779 -193.55 230.281 -181.616C220.782 -169.961 210.745 -159.106 199.908 -149.068C130.203 -63.6564 36.649 -66.9093 -54.2093 -69.8834C-85.3815 -70.9801 -117.929 -72.0582 -148.302 -69.3444C-162.41 -66.3703 -176.24 -62.8386 -187.895 -59.8459L-198.75 -57.1506C-246.205 -44.6595 -295.556 -31.6478 -344.387 -38.1536C-356.86 -40.6072 -369.332 -57.4109 -380.169 -73.6754C-388.85 -92.1333 -399.426 -109.755 -411.36 -126.019C-411.639 -124.941 -411.899 -123.863 -412.178 -122.766C-400.783 -107.041 -390.746 -90.2188 -382.344 -72.5973C-371.228 -55.2361 -358.217 -37.8934 -344.647 -35.1796ZM-366.619 7.9447C-354.406 16.3465 -342.212 22.592 -328.922 26.6628C-321.598 27.741 -313.196 30.4548 -304.795 33.1687C-293.939 36.7004 -282.824 40.2136 -273.325 40.2136C-264.923 40.2136 -258.139 37.4997 -253.808 29.3767C-237.525 0.899841 -216.91 -19.1753 -190.069 -32.1869C-178.415 -37.8934 -165.942 -41.9642 -152.113 -44.6595C-117.669 -48.47 -80.7716 -47.3733 -45.2499 -46.2952C49.4004 -43.3025 147.025 -40.3285 219.983 -126.558C229.742 -135.797 238.961 -145.816 247.642 -156.671C256.323 -167.787 264.724 -180.259 272.048 -193.289C280.171 -207.918 287.773 -223.923 294.558 -241.005C304.038 -246.433 314.615 -249.964 323.035 -251.042C334.151 -252.399 341.735 -249.146 344.987 -241.284C375.1 -179.181 403.298 -131.726 443.169 -102.152C454.006 -94.2895 465.401 -87.7837 477.613 -82.9136H477.873C496.592 -79.921 515.849 -76.9469 534.288 -73.694C566.018 -68.5265 598.026 -63.1174 630.295 -59.0466C630.295 -59.8459 630.016 -60.9426 630.016 -61.7604C598.026 -65.8126 566.297 -70.9801 534.827 -76.3893C516.388 -79.3819 497.409 -82.6348 478.691 -85.6089C467.037 -90.2188 455.642 -96.4643 445.065 -104.327C405.733 -133.343 377.535 -180.538 347.701 -242.362C343.909 -251.042 335.229 -255.113 323.035 -253.756C314.076 -252.678 302.96 -248.868 293.201 -243.18C292.922 -242.901 292.662 -242.641 292.662 -242.641C286.138 -225.558 278.554 -209.554 270.152 -194.907C262.828 -181.895 254.687 -169.683 246.006 -158.567C237.604 -147.99 228.385 -137.953 218.626 -128.733C146.486 -43.3025 49.1216 -46.2952 -44.7108 -49.2693C-80.5114 -50.366 -117.39 -51.4441 -152.113 -47.6521C-166.481 -44.6595 -179.214 -40.6073 -190.887 -34.9007C-218.007 -21.8891 -239.16 -1.27496 -255.704 27.741C-263.827 43.2062 -283.902 36.7004 -303.438 30.176C-311.84 27.4622 -320.52 24.7668 -327.844 23.6702C-340.856 19.5994 -353.049 13.6327 -364.983 4.97064C-365.262 4.69183 -365.54 4.69177 -365.54 4.69177C-379.63 3.61365 -391.303 -14.5654 -391.303 -23.246C-391.303 -23.5063 -391.303 -23.5063 -391.303 -23.5063C-398.627 -47.9124 -407.847 -69.8834 -418.962 -89.9585C-419.223 -88.6016 -419.502 -87.2447 -419.78 -85.8877C-409.464 -66.9093 -400.783 -46.0164 -394.017 -22.9672C-394.278 -12.9297 -382.344 6.30896 -366.619 7.9447ZM-377.734 51.3292L-375.299 52.1471C-365.54 57.8536 -355.763 61.6456 -345.465 64.3594C-333.253 68.9693 -321.319 72.4824 -309.665 74.936C-297.471 77.3711 -285.798 78.728 -274.403 78.728C-269.533 78.728 -264.923 78.4492 -260.035 77.9101C-243.231 76.2929 -226.948 71.4043 -212.04 63.5416C-202.003 60.0098 -192.783 54.3218 -183.563 46.1803C-175.162 38.8566 -167.838 29.9158 -160.775 21.4954C-146.406 -0.735931 -131.22 -21.0712 -116.572 -21.0712C-91.627 -21.0712 -65.0461 -18.8964 -39.5619 -16.7402C57.8022 -8.87747 158.419 -0.735901 226.749 -98.8994C236.526 -108.937 246.006 -119.792 254.687 -131.447C272.308 -155.035 287.495 -182.434 299.986 -212.807C307.57 -214.703 315.432 -212.807 324.113 -207.379C343.909 -194.646 359.635 -165.891 365.602 -153.957C372.107 -144.737 378.632 -136.336 384.58 -128.473C406.291 -101.353 426.886 -80.7388 447.779 -65.2736C457.278 -58.489 466.758 -52.5408 476.516 -47.6521C527.782 -28.934 580.925 -21.8891 634.087 -19.9931C634.087 -20.811 634.087 -21.8891 633.808 -22.707C580.925 -24.603 528.321 -31.6478 477.334 -50.0872C467.854 -54.697 458.356 -60.6638 449.136 -67.4484C428.243 -82.6348 407.908 -102.97 386.495 -130.09C380.249 -137.953 374.003 -146.094 367.498 -155.035C361.531 -166.969 345.545 -195.985 325.191 -209.275C315.711 -215.242 306.752 -217.138 298.35 -214.982C298.071 -214.982 297.532 -214.443 297.532 -214.164C285.339 -183.791 270.152 -156.392 252.512 -132.804C244.11 -121.409 234.612 -110.573 224.853 -100.535C157.062 -3.44977 57.2632 -11.5728 -39.2831 -19.4541C-65.0461 -21.6103 -91.3482 -23.7851 -116.572 -23.7851C-133.394 -23.7851 -149.399 -0.996155 -162.949 20.157C-169.734 28.5588 -177.058 37.2395 -185.181 44.5632C-194.14 52.4259 -203.081 57.835 -212.858 61.3668C-227.487 69.2295 -243.491 73.8393 -260.035 75.475C-275.5 77.0922 -291.225 76.0141 -308.587 72.4824C-320.241 70.0473 -332.175 66.5156 -344.108 61.9058C-354.406 59.4707 -363.905 55.4 -373.663 49.9723L-376.117 49.173C-386.136 45.6412 -399.705 40.7526 -403.237 28.5588C-409.743 1.97797 -417.066 -21.8891 -425.747 -43.0423C-426.007 -41.1463 -426.007 -39.2503 -426.286 -37.0755C-418.684 -17.2793 -411.639 4.69177 -405.932 29.3767C-402.679 42.6486 -388.311 47.5373 -377.734 51.3292ZM-422.754 48.0763C-414.613 57.5748 -406.49 62.4634 -395.356 64.3594C-384.24 70.5864 -373.124 76.0142 -362.827 81.163C-357.12 83.8769 -351.432 86.8696 -345.744 89.5648L-330 97.4461C-319.981 102.316 -306.951 108.822 -293.66 115.068C-282.006 118.599 -270.072 120.216 -258.139 120.216C-241.595 120.216 -224.792 116.964 -207.691 110.458C-198.75 107.205 -189.79 102.595 -180.85 97.4461C-170.552 90.1224 -159.696 80.624 -149.399 71.1255C-135.829 58.9318 -122 46.4591 -108.449 38.8566C-66.6819 22.3133 -19.7657 18.8001 25.2546 15.2684C106.336 9.02277 190.409 2.51697 246.006 -80.46C255.505 -91.3154 264.445 -103.509 272.308 -116.8C280.45 -130.629 288.052 -145.816 294.279 -162.099C295.636 -164.534 297.811 -165.891 300.525 -166.169C311.102 -167.526 330.898 -154.775 343.909 -142.024C353.668 -134.161 361.81 -126.558 366.698 -121.688C375.918 -113.008 384.859 -103.788 392.461 -95.9253C395.435 -92.9326 398.428 -89.6797 401.123 -86.7056C423.912 -62.8386 447.24 -38.1536 473.821 -19.7143C484.379 -12.1304 494.696 -6.42386 505.272 -1.81403C546.222 16.8856 590.424 16.8856 634.626 12.8334C634.626 12.0155 634.626 10.9188 634.626 10.1195C590.963 13.9114 546.761 14.1903 506.629 -4.26764C496.313 -8.87747 486.294 -14.5654 475.717 -21.8891C449.675 -40.3284 426.087 -64.7346 403.577 -88.6016C400.584 -91.5757 397.61 -94.8286 394.896 -97.8213C387.294 -105.684 378.353 -114.904 369.133 -123.863C364.245 -128.733 356.122 -136.336 346.344 -144.198C335.229 -155.035 313.815 -170.779 300.525 -168.865C296.714 -168.326 294.019 -166.43 292.104 -163.177C285.599 -146.912 278.275 -131.726 270.152 -118.157C262.289 -105.145 253.609 -92.9326 244.11 -82.0958C189.331 -0.196838 109.607 6.04877 25.2546 12.5546C-20.0259 16.0863 -66.9421 19.5994 -109.527 36.4216C-123.357 44.2843 -137.465 57.0358 -151.016 69.2295C-161.332 78.4492 -171.909 87.9476 -181.928 95.2713C-190.608 100.42 -199.568 104.491 -208.248 108.023C-236.986 119.138 -265.184 120.495 -292.304 112.633C-305.594 106.387 -318.624 99.8812 -328.383 94.9925L-344.108 87.1298C-349.796 84.4159 -355.503 81.4418 -361.191 78.728C-371.507 73.5791 -382.883 67.8725 -394.017 61.9058C-394.278 61.9058 -394.278 61.9058 -394.278 61.6456C-404.854 59.7496 -412.457 55.1397 -420.319 46.1803C-423.293 40.7526 -426.286 35.0646 -429 29.3767C-429 31.5329 -428.721 33.7077 -428.721 35.8825C-426.825 40.2135 -424.929 44.0055 -422.754 48.0763ZM508.246 38.3176C497.948 34.2468 487.911 28.8191 477.613 22.053C446.422 1.69916 418.763 -28.1161 395.974 -54.4368C387.573 -64.1955 379.431 -73.6754 371.308 -83.7129C368.315 -87.2447 365.341 -91.0366 362.089 -95.1074C359.096 -98.8994 355.843 -102.97 352.311 -107.041C350.415 -108.677 348.519 -110.294 346.623 -111.93C332.794 -123.584 317.328 -136.875 307.291 -135.239C304.596 -134.7 302.142 -133.083 300.525 -130.09C293.74 -111.651 285.878 -94.8286 277.197 -79.921C268.795 -66.0915 259.297 -53.3401 248.999 -42.2244L246.824 -40.0496C218.068 -12.3906 190.948 13.9114 159.497 22.8523C116.373 39.3956 71.9106 48.8942 28.7863 57.8536C-38.7441 72.2221 -102.743 85.5126 -162.131 124.826C-173.805 129.436 -185.738 133.228 -196.854 135.942C-235.368 145.162 -271.15 143.805 -303.159 131.611C-316.171 127.819 -330.279 123.469 -347.101 117.781C-357.678 114.25 -368.793 110.458 -382.344 105.569C-398.348 101.238 -412.178 93.6356 -424.39 84.4159C-424.111 85.7728 -424.111 86.8695 -423.833 88.2264C-411.899 96.8885 -398.627 103.952 -383.162 108.023C-369.871 112.633 -358.756 116.425 -348.179 120.216C-331.357 125.923 -317.267 130.254 -304.237 134.046C-285.798 141.109 -266.28 144.623 -245.666 144.623C-229.941 144.623 -213.397 142.448 -196.575 138.396C-185.181 135.682 -173.266 131.871 -161.332 127.261C-161.332 127.261 -161.053 127.261 -161.053 127.001C-101.925 88.2264 -38.4652 74.6572 29.0465 60.2886C72.1708 51.069 116.652 41.8492 160.036 25.3059C192.045 16.0862 219.425 -10.2344 248.441 -38.1536L250.616 -40.3284C261.193 -51.4441 270.951 -64.4557 279.372 -78.5641C288.313 -93.4903 296.175 -110.573 302.96 -129.012C304.038 -131.187 305.674 -132.265 307.849 -132.525C316.511 -134.161 332.255 -120.61 344.987 -109.755C346.902 -108.119 349.058 -106.502 350.694 -104.866C353.947 -101.074 357.2 -97.0034 360.174 -93.2114C363.427 -89.1407 366.419 -85.3487 369.672 -81.817C377.814 -71.7794 385.937 -62.2995 394.357 -52.5408C417.406 -25.9599 445.065 3.8739 476.516 24.488C487.093 31.5329 497.409 36.6818 507.707 41.0314C546.5 59.4708 590.703 57.296 633.808 54.043C633.808 53.2252 633.808 52.1471 634.087 51.3292C590.424 54.0431 546.5 56.4966 508.246 38.3176ZM504.194 72.4824C495.235 67.6123 486.554 61.9058 477.074 54.5821C453.746 36.4216 431.775 12.2758 410.622 -10.7734L403.298 -18.6362C394.078 -28.6737 384.32 -39.2503 374.003 -49.5481C367.498 -55.2361 360.992 -62.2995 354.765 -69.0656C349.597 -74.7721 344.188 -80.46 339.021 -85.3487C327.645 -97.5424 316.511 -102.97 307.57 -100.795C301.882 -99.457 297.532 -95.1074 295.636 -88.6016C290.487 -72.3371 284.521 -57.1506 277.736 -43.5814C214.555 72.7612 102.283 93.6356 -6.47522 113.711C-55.0086 122.652 -105.178 131.871 -150.198 149.511C-163.488 152.485 -176.779 154.939 -190.069 156.556C-231.019 161.705 -271.15 160.088 -309.944 151.407C-318.624 149.511 -327.286 147.615 -336.246 145.719L-349.536 142.727C-361.47 140.013 -373.403 137.578 -385.058 134.864C-395.095 132.689 -406.49 130.254 -417.866 127.54C-417.606 128.618 -417.327 129.436 -417.327 130.533C-406.49 132.968 -395.634 135.403 -385.876 137.578C-373.942 140.292 -362.009 142.727 -350.354 145.44L-337.064 148.415C-328.383 150.329 -319.423 152.225 -310.743 154.121C-286.337 159.549 -261.392 162.263 -235.907 162.263C-220.721 162.263 -205.256 161.166 -189.79 159.27C-176.519 157.653 -163.228 155.199 -149.659 151.946C-104.639 134.325 -54.7484 125.105 -6.19641 116.424C103.083 96.3494 216.172 75.475 279.911 -42.2244C286.695 -56.0539 292.662 -71.2404 297.811 -87.7837C299.428 -93.4903 302.96 -97.0034 307.849 -98.1001C312.458 -99.1782 322.477 -98.6391 336.865 -83.4527C342.013 -78.5641 347.441 -72.8761 352.59 -67.1696C359.096 -60.4035 365.602 -53.3401 371.847 -47.6521C382.145 -37.6146 391.904 -27.038 400.863 -17.0005L408.187 -9.1377C429.34 14.1903 451.311 38.0387 474.899 56.4966C484.119 63.8018 493.06 69.7685 502.279 74.6572C534.288 89.8436 572.263 89.8436 608.603 90.1224C615.369 90.1224 621.875 90.1224 628.66 90.3827C628.66 89.5648 628.938 88.4867 628.938 87.6688C622.154 87.6688 615.369 87.4086 608.603 87.4086C573.063 87.4086 535.645 87.4086 504.194 72.4824ZM528.6 124.008C517.206 120.216 506.09 114.789 494.696 107.744C463.505 87.6688 436.385 56.2178 410.362 25.845L407.908 22.8523C398.688 12.0154 389.469 1.4389 379.97 -8.59866C375.1 -13.2085 370.49 -18.3574 365.602 -23.7851C364.245 -25.4208 362.628 -27.038 361.271 -28.6737C355.304 -35.1795 348.519 -42.2244 342.013 -47.3733C329.262 -59.8459 313.815 -61.4816 299.428 -51.7229C287.234 -43.5813 277.736 -28.1161 275.561 -13.4873C238.422 131.072 115.834 140.552 -2.68326 149.511C-52.3133 153.303 -98.9507 156.835 -139.621 169.568C-153.73 172.021 -166.741 173.917 -179.493 175.534C-237.264 182.858 -289.868 183.137 -340.577 176.092C-354.146 174.456 -367.697 172.839 -381.266 171.203C-388.59 170.386 -397.27 169.307 -406.75 167.951C-406.49 169.029 -406.211 169.847 -405.932 170.925C-396.991 172.021 -388.59 173.099 -381.526 173.917C-367.975 175.535 -354.406 177.17 -340.856 178.806C-290.147 185.572 -237.264 185.572 -179.214 178.248C-166.481 176.631 -153.451 174.735 -139.082 172.282C-98.6719 159.549 -52.0345 156.017 -2.68326 152.225C116.912 143.266 240.318 133.786 278.275 -12.9297C280.45 -26.7592 289.409 -41.4066 301.064 -49.2693C308.927 -54.4368 324.392 -61.2028 340.378 -45.2171C347.162 -40.0496 353.408 -33.2836 359.375 -26.7592C360.732 -25.142 362.349 -23.5063 363.706 -21.8891C368.315 -16.7402 373.204 -11.3125 378.074 -6.70267C387.573 3.3349 396.514 13.9115 405.733 24.7669L408.187 27.741C434.489 58.3926 461.33 89.8436 493.06 110.179C504.454 117.503 515.849 123.209 527.782 127.001H528.043L535.106 127.54C563.304 129.715 592.06 132.15 620.537 137.299C620.797 136.5 621.076 135.682 621.076 134.585C592.599 129.176 563.583 127.001 535.366 124.826L528.6 124.008ZM563.583 171.203C551.37 170.664 539.437 168.229 528.043 163.88C497.948 154.66 469.75 131.611 439.638 91.7396C435.307 86.5908 430.957 81.702 426.626 76.5532C424.191 73.8393 422.016 71.1254 419.581 68.1514C413.615 61.1065 406.551 52.9649 399.227 45.1022C387.573 32.3508 377.275 22.3132 366.959 13.6326C357.739 4.15271 349.058 -2.6319 340.378 -6.42386C327.366 -9.41653 316.25 -8.05957 306.213 -2.35306C297.532 2.51703 289.948 10.6585 282.346 22.3132C282.346 22.3132 282.346 22.5921 282.086 22.5921C262.01 98.8031 220.522 146.797 155.166 168.49C97.3948 187.747 29.6042 185.033 -36.0302 182.319C-65.5852 180.962 -93.8018 179.884 -120.383 180.702C-132.577 181.501 -144.51 182.319 -156.722 183.137C-229.123 188.565 -284.98 195.07 -337.603 204.011C-347.9 205.368 -359.016 206.465 -370.41 207.264C-378.552 207.822 -386.136 208.361 -392.66 208.621C-392.382 209.439 -391.843 210.257 -391.564 211.335C-385.058 211.075 -378.013 210.536 -370.15 209.978C-358.756 209.179 -347.361 208.082 -337.064 206.725C-284.441 197.784 -228.844 191.279 -156.444 185.851C-144.51 185.033 -132.298 184.215 -120.383 183.416C-93.8018 182.598 -65.864 183.676 -36.309 185.033C92.7849 190.461 238.961 196.427 284.521 23.6702C291.565 12.5545 299.168 4.69183 307.291 0.0819702C316.789 -5.34573 327.366 -6.42386 339.3 -3.98883C347.162 -0.457092 355.564 6.04877 364.784 15.5472C375.1 24.2093 385.398 34.2468 397.071 46.9982C404.395 54.8609 411.44 63.0025 417.128 70.0474C419.581 72.7612 421.737 75.4751 424.191 78.4492C428.522 83.6166 432.853 88.7655 436.924 93.6356C467.297 134.046 495.774 157.095 526.425 166.594C538.08 170.925 550.292 173.378 563.044 174.178C573.62 173.638 584.457 173.917 595.034 174.995C599.383 176.092 603.993 176.891 608.603 177.709C608.863 176.891 609.142 176.092 609.402 174.995C604.792 174.178 600.183 173.099 595.573 172.282C585.275 170.925 574.159 170.664 563.583 171.203ZM582.561 215.406C524.251 214.049 483.58 195.888 457.817 160.088C450.214 152.225 442.091 143.544 433.411 133.228C425.269 123.748 417.406 113.989 409.804 104.491C402.22 94.9925 394.896 86.0516 387.573 77.371C378.353 67.0732 369.951 59.7496 362.089 54.8609C359.096 53.2252 343.909 44.8234 333.612 50.7902L333.333 51.069C327.087 57.5748 320.86 64.0806 314.615 70.5864C310.284 75.1963 305.934 79.806 301.603 84.4159C294.818 91.2005 287.773 98.2454 280.45 105.03C187.974 227.878 37.7271 267.75 -84.5822 201.298C-84.8424 201.298 -85.1212 201.037 -85.1212 201.037C-99.4898 200.498 -113.858 200.758 -129.324 201.576C-143.692 202.115 -158.34 203.472 -172.708 205.108C-234.55 211.874 -294.478 227.339 -344.926 241.448C-354.406 244.701 -364.184 247.136 -374.76 248.493C-374.481 249.31 -373.942 250.128 -373.403 250.928C-363.087 249.31 -353.328 247.136 -344.108 243.883C-293.939 229.774 -234.272 214.588 -172.448 207.822C-158.061 206.186 -143.432 205.108 -129.045 204.29C-113.858 203.472 -99.4898 203.472 -85.3815 203.751C38.2662 270.464 189.61 230.332 282.885 106.666C289.948 100.141 296.993 93.0965 304.038 86.3119C308.388 81.702 312.719 77.0922 317.068 72.4824C323.295 65.9766 329.262 59.4708 335.508 53.2252C342.552 49.4332 353.668 52.965 360.992 57.296C368.594 62.1846 376.717 69.2295 385.937 79.267C393.261 87.9476 400.584 96.8885 408.187 106.387C415.771 115.885 423.912 125.644 431.775 135.143C440.734 145.44 448.597 154.381 456.181 161.984C482.223 198.323 523.712 216.763 582.84 218.398C586.632 218.398 590.703 218.398 594.495 218.398C594.774 217.581 595.313 216.484 595.573 215.685C590.963 215.406 586.632 215.406 582.561 215.406ZM531.853 249.849C489.807 238.734 458.616 212.692 437.203 169.847C437.203 169.847 437.203 169.568 436.924 169.568C425.808 157.653 416.31 148.693 407.09 141.648C382.684 123.469 359.635 118.32 333.872 125.365C322.477 128.358 311.362 133.507 299.986 141.109C290.748 147.076 281.528 154.939 270.412 165.237C263.367 171.742 254.148 180.423 244.389 189.383C200.726 237.916 147.025 266.932 88.993 273.717C31.5002 280.501 -24.9146 264.497 -74.2658 227.618C-74.5446 227.618 -74.5446 227.339 -74.5446 227.339C-87.296 223.547 -99.2295 222.19 -111.144 223.269C-123.078 222.729 -135.012 222.729 -146.406 223.269C-158.34 223.808 -170.273 224.625 -181.668 225.982C-232.097 232.228 -277.675 248.214 -320.241 274.534C-331.357 279.683 -343.569 280.222 -351.971 280.222C-353.867 280.222 -355.763 280.222 -357.659 280.222C-357.12 281.04 -356.581 282.118 -356.042 282.936C-354.685 282.936 -353.328 282.936 -351.971 282.936C-343.291 282.936 -330.558 282.397 -318.884 276.969C-276.318 250.928 -231.298 235.202 -181.128 228.696C-169.734 227.339 -158.061 226.261 -146.146 225.982C-134.751 225.443 -123.078 225.443 -110.884 225.982C-99.2296 224.904 -87.5563 226.261 -75.3625 229.774C-25.4536 266.932 31.5002 282.936 89.532 276.152C148.103 269.367 202.343 239.812 246.545 191C256.323 182.319 265.542 173.638 272.587 167.133C283.442 156.835 292.662 149.232 301.603 143.266C312.719 135.942 323.574 130.793 334.69 128.079C359.635 121.295 382.145 126.183 405.733 143.805C414.971 150.868 424.451 159.549 435.307 171.203C457.278 214.588 488.729 241.169 531.574 252.563C543.787 255.816 556.519 257.712 571.167 258.79C572.524 258.79 574.159 258.79 575.777 258.79C576.316 257.991 576.873 256.894 577.134 256.095C575.238 256.095 573.063 256.095 571.167 256.095C556.519 254.738 543.787 252.824 531.853 249.849ZM520.998 297.305C510.96 295.688 502.019 292.695 493.06 288.364C466.219 272.899 446.144 249.032 426.886 225.722C417.128 213.789 406.83 201.576 395.714 190.721C382.145 180.144 365.341 176.631 349.876 180.962H349.597C338.482 187.208 328.444 192.896 318.964 198.045C308.109 204.011 297.811 209.439 288.052 214.328C272.587 222.73 256.583 232.228 241.136 241.448C135.909 303.55 26.8903 367.549 -71.0129 250.928C-77.2585 243.883 -87.8351 244.162 -97.0547 244.701C-100.847 244.961 -104.639 244.961 -107.892 244.701C-122 244.162 -135.29 244.162 -148.042 244.701C-161.871 245.24 -174.883 246.318 -187.355 248.214C-241.595 256.095 -290.947 276.969 -337.863 311.673C-337.324 312.491 -336.785 313.03 -336.246 313.848C-289.59 279.404 -240.777 258.79 -186.816 250.928C-174.344 249.032 -161.592 247.953 -147.763 247.414C-135.012 246.875 -122 246.875 -107.892 247.414C-104.378 247.675 -100.847 247.675 -96.7759 247.414C-87.8351 247.136 -78.3366 246.597 -72.9089 252.824C-28.4463 305.707 22.8195 326.321 83.2864 315.484C136.727 305.985 190.688 274.256 242.753 243.604C258.219 234.384 274.204 225.165 289.409 216.763C299.168 211.874 309.745 206.186 320.581 200.498C330.08 195.331 340.117 189.643 351.233 183.416C365.88 179.345 381.606 182.598 394.357 192.635C405.194 203.472 415.51 215.685 425.269 227.339C444.787 250.667 465.141 274.795 492.261 290.52C501.48 295.13 510.96 298.123 520.998 299.758C530.217 301.097 539.716 301.376 550.014 300.558C550.553 300.558 551.11 300.297 551.37 300.297C551.91 299.201 552.727 298.123 553.266 297.305C551.91 297.584 550.831 297.844 549.475 298.123C539.177 298.94 529.957 298.662 520.998 297.305ZM493.06 335.001C484.658 328.495 476.256 321.711 468.393 315.205C429.34 283.475 388.651 250.667 336.586 250.667C324.392 250.928 311.101 252.284 295.915 254.998C227.028 275.073 163.029 312.491 101.187 348.571C90.6101 354.798 79.7733 361.043 69.1967 367.27C53.7314 376.23 33.3961 385.71 13.5999 381.1C-13.5201 370.802 -31.1601 346.117 -47.9637 321.99C-68.8381 292.695 -90.2701 262.322 -129.045 259.887C-140.179 258.53 -150.756 258.251 -161.053 258.79C-172.169 259.348 -183.285 261.244 -194.14 264.218C-220.721 271.281 -243.77 289.442 -266.001 307.063C-282.824 320.354 -299.088 332.827 -316.171 340.968C-315.632 341.786 -315.092 342.325 -314.553 343.143C-297.192 335.001 -281.188 322.529 -264.384 309.238C-242.413 291.877 -219.624 273.977 -193.601 266.932C-183.024 263.958 -172.169 262.322 -161.053 261.504C-150.756 260.965 -140.439 261.244 -129.324 262.601C-91.9059 265.036 -71.5519 293.513 -50.1385 323.607C-32.7773 347.753 -15.1558 372.977 13.0608 383.553C16.8528 384.353 20.6447 384.91 24.4367 384.91C41.5377 384.91 57.8022 377.047 70.8139 369.445C81.3905 363.199 92.2458 356.972 102.822 350.727C164.646 314.666 228.645 277.508 296.993 257.452C311.901 254.738 324.931 253.381 336.865 253.102C387.852 253.102 427.983 285.65 466.758 316.841C474.899 323.347 483.301 330.131 491.703 336.637C499.844 341.786 508.525 344.76 518.284 345.578C519.102 344.5 519.92 343.682 520.737 342.604C520.459 342.604 519.92 342.864 519.641 342.864C509.882 342.864 501.201 340.15 493.06 335.001ZM409.005 332.826C371.029 306.264 331.976 278.865 282.346 299.201C269.594 303.011 256.862 307.342 243.571 312.77C205.596 328.495 169.256 349.649 134.013 370.263C99.0305 390.877 62.6909 412.03 24.7155 427.756C13.8601 431.826 -2.12564 432.904 -14.6168 423.406C-35.2123 407.141 -48.5028 382.457 -61.2542 358.59C-81.3293 321.172 -100.308 286.189 -145.049 283.215C-156.165 281.04 -167.559 281.579 -179.772 284.832C-190.608 287.825 -200.925 292.435 -210.944 297.305C-228.305 307.342 -242.952 321.711 -257.321 335.819C-269.533 347.753 -281.188 359.147 -293.939 367.828C-293.4 368.367 -292.861 369.166 -292.043 369.984C-279.292 361.303 -267.637 349.927 -255.425 337.994C-241.335 323.886 -226.688 309.517 -209.605 299.758C-199.568 295.13 -189.53 290.52 -178.954 287.546C-167.299 284.293 -156.165 283.754 -145.328 285.91C-101.925 288.624 -83.2253 323.347 -63.429 359.946C-50.3988 384.092 -37.1083 408.777 -15.9551 425.581C-8.37119 431.287 0.309418 433.722 8.71121 433.722C14.9568 433.722 20.9236 432.365 26.0724 430.469C64.308 414.744 100.648 393.312 135.909 372.698C170.892 352.084 207.232 330.93 244.928 315.205C258.219 309.777 270.691 305.446 283.703 301.654C331.976 281.858 370.49 308.699 407.908 334.741C434.489 353.441 461.888 372.438 492.521 374.334C492.8 374.334 493.339 374.334 493.617 374.334C494.417 373.516 495.235 372.698 496.052 371.62C494.956 371.62 493.878 371.62 492.521 371.62C462.427 370.263 435.307 351.284 409.005 332.826ZM390.287 367.01C355.843 331.748 320.321 295.13 276.119 323.886C263.628 328.774 251.155 334.462 237.604 341.786C210.745 356.154 184.721 373.776 159.497 390.877C113.399 422.049 65.3861 454.597 8.71121 470.062C-10.546 474.393 -30.3423 475.211 -46.6068 451.883C-58.0013 435.618 -65.864 416.361 -73.4665 397.643C-88.0953 362.121 -101.665 328.774 -136.908 316.562C-148.302 313.848 -159.696 314.127 -170.812 316.841C-180.571 319.276 -190.069 323.607 -199.828 330.391C-215.572 341.247 -229.941 356.154 -243.77 370.802C-251.633 378.943 -259.496 387.345 -267.637 395.208C-267.098 395.747 -266.28 396.565 -265.741 397.104C-257.6 389.52 -249.458 381.1 -241.595 372.698C-227.766 358.05 -213.658 343.143 -198.211 332.566C-188.712 326.06 -179.493 321.711 -170.273 319.276C-159.418 316.562 -148.581 316.283 -137.725 318.997C-103.839 330.67 -90.2701 363.478 -75.9016 398.461C-68.0388 417.179 -60.1761 436.696 -48.7816 453.24C-37.1083 470.062 -23.2788 474.932 -9.44931 474.932C-2.94348 474.932 3.56232 473.854 9.52908 472.497C66.7431 456.772 114.756 424.224 161.133 392.773C186.339 375.691 212.38 358.05 238.961 343.961C252.512 336.897 264.985 330.931 277.197 326.321H277.476C320.042 298.401 354.765 334.183 388.391 368.906C402.22 383.014 416.31 397.643 430.697 407.42C436.924 411.472 443.17 414.744 449.675 417.179C450.493 416.64 451.311 415.822 452.11 415.004C445.344 412.569 438.56 409.316 432.054 404.967C417.946 395.487 404.395 381.657 390.287 367.01ZM263.089 353.719C254.687 358.05 246.545 364.835 239.779 372.438C150.557 442.942 56.1665 510.194 -26.5317 491.215C-72.3698 480.639 -109.527 445.117 -139.9 382.457C-142.075 377.587 -146.146 374.334 -151.834 372.438C-167.299 367.828 -192.244 376.23 -207.691 386.527C-218.267 393.591 -228.844 402.532 -238.621 410.933L-242.134 413.926C-242.952 414.744 -244.03 415.543 -245.127 416.361C-244.309 416.9 -243.77 417.439 -242.952 417.997C-242.134 417.179 -241.335 416.64 -240.517 415.822L-236.986 412.829C-227.227 404.428 -216.91 395.487 -206.613 388.423C-191.705 378.404 -167.838 370.263 -152.912 374.594C-148.042 375.951 -144.51 378.943 -142.614 383.014C-111.702 446.734 -74.0056 482.813 -27.3496 493.39C-17.5909 495.546 -7.55331 496.643 2.74445 496.643C78.9554 496.643 161.932 436.696 241.396 374.055C248.181 366.471 256.044 359.946 263.906 355.894C326.288 332.566 369.951 381.657 412.258 429.113C415.232 432.626 418.485 435.897 421.477 439.41C422.277 438.871 422.834 438.332 423.633 437.793C420.659 434.261 417.406 430.73 414.154 427.217C371.568 379.204 327.087 329.574 263.089 353.719ZM326.827 391.137C304.856 361.043 264.445 373.776 235.708 385.988C235.43 385.988 235.43 386.267 235.169 386.267C222.678 399 210.484 410.933 198.83 421.789C115.834 498.539 44.5118 532.983 -20.0259 527.016C-71.552 522.127 -118.747 490.397 -161.053 433.183C-164.306 428.834 -168.377 426.12 -172.987 425.581C-183.842 424.224 -197.114 432.626 -211.501 443.481C-210.683 444.02 -209.866 444.559 -209.327 445.117C-195.757 434.801 -183.285 426.938 -173.526 428.295C-169.455 428.834 -166.202 431.009 -163.228 434.8C-131.498 477.925 -96.7759 506.662 -59.6184 520.51C-52.5736 522.666 -45.5287 524.841 -38.205 526.737C-32.2383 528.094 -26.2715 528.912 -20.3047 529.451C-15.4161 529.99 -10.2672 530.269 -5.37854 530.269C55.9063 530.269 123.437 495.286 200.447 423.685C212.102 412.829 224.314 400.896 236.526 388.423C294.019 363.757 314.076 378.943 324.113 392.773C347.441 422.049 372.665 442.124 400.324 454.058C401.123 453.519 401.941 452.701 403.038 452.162C375.639 440.767 350.415 420.711 326.827 391.137ZM277.197 404.706C269.055 401.714 261.193 406.324 253.609 410.673C249.259 413.108 244.928 415.543 240.857 416.361C240.578 416.361 240.578 416.361 240.578 416.361C229.463 422.328 218.068 429.652 206.135 438.053C187.695 451.084 169.795 465.452 152.453 479.542C128.585 498.799 103.901 518.874 77.3197 535.139C72.1708 538.392 67.3007 541.384 62.1332 543.819C63.769 543.819 65.665 544.098 67.3007 544.098C71.0927 541.923 74.8846 539.749 78.6766 537.314C105.536 521.049 130.203 500.974 154.07 481.456C171.431 467.348 189.052 452.98 207.771 439.949C219.704 431.548 230.82 424.763 241.675 418.536C246.006 417.439 250.616 415.004 254.966 412.569C262.01 408.498 269.594 404.167 276.658 406.863C276.918 406.863 276.918 406.863 277.197 406.863C312.458 406.863 339.839 431.287 366.141 454.597C370.751 458.668 375.639 463.017 380.249 467.069C381.067 466.53 381.885 465.991 382.684 465.712C377.814 461.66 372.925 457.05 368.055 452.701C341.195 429.373 313.536 404.706 277.197 404.706ZM-161.332 466.809C-165.942 466.27 -170.552 466.53 -175.422 467.348C-174.344 468.166 -172.987 468.705 -171.909 469.523C-168.377 469.244 -165.124 469.244 -161.871 469.523C-149.659 470.88 -139.082 478.204 -130.402 490.676C-129.863 491.475 -129.602 492.033 -129.045 492.832C-127.688 493.65 -126.071 494.189 -124.714 495.007C-125.792 493.111 -127.149 491.215 -128.245 489.319C-137.186 476.029 -148.581 468.426 -161.332 466.809ZM294.558 438.053C290.208 431.287 284.242 427.217 276.658 425.86C264.985 423.685 250.077 428.016 235.708 437.793C220.522 451.344 208.849 461.381 197.733 470.88C165.464 498.26 131.021 525.38 95.22 545.715C96.8557 545.715 98.4729 545.715 100.109 545.715C135.909 525.12 169.535 498.26 199.629 472.776C210.745 463.277 222.418 453.24 237.326 439.949C251.155 430.469 265.263 426.399 276.119 428.573C282.885 429.93 288.312 433.722 292.383 439.949C309.745 458.946 328.184 474.133 348.798 486.066C349.876 485.509 350.694 484.97 351.512 484.709C330.619 472.497 311.901 457.05 294.558 438.053ZM259.297 458.946C255.226 459.207 251.434 459.746 247.902 459.207C234.891 452.701 221.061 464.355 210.206 473.594C207.771 475.75 205.336 477.646 203.161 479.542C181.468 494.189 160.576 514.264 140.519 533.522C136.448 537.314 132.377 541.105 128.586 545.176C129.942 545.176 131.299 545.176 132.656 544.916C135.909 541.923 139.162 538.671 142.415 535.418C162.49 516.16 183.364 496.085 204.796 481.717C207.232 480.1 209.406 477.925 212.102 475.75C222.957 466.27 235.43 455.693 247.103 461.66C247.363 461.66 247.363 461.66 247.363 461.66C251.155 462.199 255.505 461.92 259.575 461.66C265.542 461.103 271.769 460.564 276.379 463.277C293.461 471.419 309.206 484.431 324.392 497.442C325.191 497.182 326.288 496.643 327.087 496.085C311.362 482.535 295.097 469.244 277.476 460.842C272.587 457.85 265.802 458.389 259.297 458.946ZM249.538 495.007C233.534 494.189 217.529 498.26 201.804 506.941C201.525 506.941 201.525 507.219 201.525 507.219C191.766 519.413 181.729 530.808 171.71 541.384C173.067 541.105 174.684 541.106 176.041 540.845C185.26 531.087 194.48 520.51 203.44 509.115C218.347 500.695 233.812 496.903 249.259 497.721C260.114 502.052 270.691 508.298 280.729 515.343C281.807 515.082 282.885 514.543 283.982 514.264C273.126 506.662 262.01 499.896 250.077 495.286C250.077 495.007 249.798 495.007 249.538 495.007ZM227.846 530.529C227.288 530.808 226.749 531.087 226.21 531.347C227.288 531.087 228.645 530.808 229.742 530.529C229.203 530.529 228.924 530.529 228.385 530.529C228.106 530.529 227.846 530.529 227.846 530.529Z" fill="#C89898" fill-opacity="0.18"/>
</g>
</svg>
